<svg xmlns="http://www.w3.org/2000/svg" xmlns:xlink="http://www.w3.org/1999/xlink" width="701.455" height="333.707" viewBox="0 0 701.455 333.707">
  <defs>
    <clipPath id="clip-path">
      <rect id="Rectangle_31" data-name="Rectangle 31" width="48" height="48" transform="translate(0.242 0.242)" fill="#6c79dc"/>
    </clipPath>
    <clipPath id="clip-path-2">
      <path id="Path_171" data-name="Path 171" d="M132.328,70.158a.917.917,0,0,0-.917,0l-7.6,4.385a.917.917,0,0,0-.459.795v8.777a.919.919,0,0,0,.459.795l7.6,4.388a.919.919,0,0,0,.918,0l7.6-4.388a.918.918,0,0,0,.459-.795V75.338a.917.917,0,0,0-.459-.795Z" transform="translate(-123.353 -70.035)" fill="#6c79dc"/>
    </clipPath>
    <linearGradient id="linear-gradient" x1="-0.087" y1="0.237" x2="0.662" y2="0.763" gradientUnits="objectBoundingBox">
      <stop offset="0" stop-color="#010101" stop-opacity="0.102"/>
      <stop offset="1" stop-color="#010101" stop-opacity="0"/>
    </linearGradient>
    <linearGradient id="linear-gradient-2" x1="0.084" y1="0.306" x2="0.916" y2="0.694" gradientUnits="objectBoundingBox">
      <stop offset="0" stop-color="#fff" stop-opacity="0.2"/>
      <stop offset="1" stop-color="#fff" stop-opacity="0"/>
    </linearGradient>
  </defs>
  <g id="Group_150" data-name="Group 150" transform="translate(-610 -495)">
    <g id="Group_114" data-name="Group 114" transform="translate(-173.208 85)">
      <path id="_4691292_react_native_react_icon" data-name="4691292_react native_react_icon" d="M39.889,28.379A7.11,7.11,0,1,0,47,35.489,7.11,7.11,0,0,0,39.889,28.379ZM19.972,49.634l-1.568-.4C6.7,46.279,0,41.264,0,35.477s6.7-10.8,18.4-13.759l1.568-.4.442,1.556a78.215,78.215,0,0,0,4.531,11.893l.335.708-.335.708a77.476,77.476,0,0,0-4.531,11.893l-.442,1.553Zm-2.3-24.283C8.785,27.848,3.33,31.666,3.33,35.477S8.785,43.1,17.674,45.6A82.937,82.937,0,0,1,21.6,35.477a82.278,82.278,0,0,1-3.928-10.125ZM59.807,49.634l-.442-1.559a77.642,77.642,0,0,0-4.533-11.893l-.335-.708.335-.708a77.851,77.851,0,0,0,4.535-11.893l.442-1.556,1.572.4c11.7,2.958,18.4,7.973,18.4,13.765s-6.7,10.8-18.4,13.759ZM58.175,35.477A82.192,82.192,0,0,1,62.1,45.6C71,43.1,76.449,39.277,76.449,35.47S70.994,27.845,62.1,25.345A82.4,82.4,0,0,1,58.176,35.47ZM17.65,25.332l-.442-1.552C13.921,12.194,14.919,3.891,19.945.991c4.93-2.845,12.844.515,21.138,9.023l1.13,1.16-1.13,1.16A78.289,78.289,0,0,0,33.028,22.2l-.448.638-.782.067a78.638,78.638,0,0,0-12.581,2.028l-1.568.4Zm6.3-22.038a4.638,4.638,0,0,0-2.344.574C18.3,5.773,17.72,12.395,20,21.33a83.508,83.508,0,0,1,10.746-1.666,82.594,82.594,0,0,1,6.821-8.457c-5.186-5.05-10.1-7.914-13.612-7.914ZM55.829,70.981h0c-4.737,0-10.82-3.566-17.132-10.052l-1.13-1.16,1.13-1.16a78.219,78.219,0,0,0,8.053-9.864l.448-.638.777-.067a78.549,78.549,0,0,0,12.589-2.025l1.568-.4.445,1.556c3.28,11.581,2.286,19.889-2.74,22.783a7.911,7.911,0,0,1-4,1.024ZM42.214,59.742c5.186,5.05,10.1,7.914,13.612,7.914h0a4.627,4.627,0,0,0,2.341-.574c3.3-1.905,3.893-8.53,1.612-17.465a83.168,83.168,0,0,1-10.749,1.666,82.014,82.014,0,0,1-6.816,8.46Zm19.914-34.41-1.568-.4a78.046,78.046,0,0,0-12.589-2.028l-.779-.067-.448-.638A77.831,77.831,0,0,0,38.7,12.341l-1.13-1.16,1.13-1.16C46.987,1.51,54.9-1.85,59.834.991c5.026,2.9,6.023,11.2,2.74,22.786l-.445,1.556Zm-13.1-5.667A82.9,82.9,0,0,1,59.781,21.33c2.28-8.935,1.691-15.557-1.612-17.462s-9.457,1.01-15.956,7.34a82.6,82.6,0,0,1,6.818,8.457ZM23.953,70.981a7.911,7.911,0,0,1-4.008-1.024c-5.026-2.9-6.023-11.2-2.736-22.783l.439-1.556,1.568.4A78.462,78.462,0,0,0,31.8,48.039l.782.067.445.638a78.438,78.438,0,0,0,8.051,9.865l1.13,1.16-1.13,1.16c-6.309,6.483-12.393,10.052-17.122,10.052ZM20,49.617c-2.28,8.935-1.691,15.56,1.612,17.465,3.281,1.872,9.451-1.013,15.956-7.34a83.1,83.1,0,0,1-6.821-8.457A83.02,83.02,0,0,1,20,49.62ZM39.889,51.7c-2.736,0-5.548-.12-8.364-.353l-.782-.067-.448-.638q-2.393-3.432-4.487-7.054t-3.876-7.41l-.332-.708.332-.708q1.784-3.782,3.876-7.407C27.184,24.978,28.7,22.605,30.3,20.3l.448-.638.782-.067a99.009,99.009,0,0,1,16.73,0l.777.067.445.638a99.739,99.739,0,0,1,8.367,14.461l.335.708-.335.708a98.4,98.4,0,0,1-8.367,14.461l-.445.638-.777.067c-2.816.233-5.631.353-8.367.353Zm-7.3-3.6a96.549,96.549,0,0,0,14.609,0,96.421,96.421,0,0,0,7.3-12.626,95.021,95.021,0,0,0-7.3-12.624,96.5,96.5,0,0,0-14.606,0,94.66,94.66,0,0,0-7.3,12.626,96.777,96.777,0,0,0,7.3,12.624Z" transform="translate(1404.884 542.281)" fill="#6c79dc"/>
    </g>
    <g id="Group_115" data-name="Group 115" transform="translate(5.792 -108)">
      <g id="_9118036_nextjs_fill_icon" data-name="9118036_nextjs_fill_icon" transform="translate(1201.758 602.758)" clip-path="url(#clip-path)">
        <path id="Path_181" data-name="Path 181" d="M22.411.013c-.1.009-.431.042-.727.066a24.039,24.039,0,0,0-17.235,9.94A23.742,23.742,0,0,0,.216,20.5,18.359,18.359,0,0,0,0,23.99a18.357,18.357,0,0,0,.216,3.493A24.082,24.082,0,0,0,16.621,46.861a25.355,25.355,0,0,0,5.064,1.05,44.159,44.159,0,0,0,4.595,0,24.213,24.213,0,0,0,8.641-2.527c.413-.211.492-.267.436-.314-.038-.028-1.8-2.386-3.906-5.237l-3.835-5.181L22.81,27.54c-2.644-3.91-4.82-7.108-4.839-7.108s-.038,3.155-.047,7.014c-.014,6.756-.019,7.028-.1,7.188a.852.852,0,0,1-.413.427c-.15.075-.281.089-.989.089h-.811l-.216-.136a.878.878,0,0,1-.314-.342l-.1-.211.009-9.4L15,15.654l.145-.183a1.286,1.286,0,0,1,.347-.286c.192-.094.267-.1,1.078-.1.956,0,1.116.037,1.364.309.07.075,2.672,3.995,5.786,8.716s7.37,11.168,9.462,14.333l3.8,5.753.192-.127A24.618,24.618,0,0,0,42.1,39.744a23.876,23.876,0,0,0,5.645-12.261,18.355,18.355,0,0,0,.216-3.493,18.357,18.357,0,0,0-.216-3.493A24.082,24.082,0,0,0,31.343,1.119,25.181,25.181,0,0,0,26.35.074C25.9.027,22.8-.025,22.411.013Zm9.818,14.506a.946.946,0,0,1,.473.553c.038.122.047,2.729.038,8.6l-.014,8.43L31.24,29.827l-1.491-2.278V21.421c0-3.962.019-6.189.047-6.3a.956.956,0,0,1,.464-.591c.192-.1.263-.108,1-.108C31.953,14.426,32.075,14.435,32.229,14.519Z" transform="translate(0.121 0.121)" fill="#6c79dc"/>
      </g>
    </g>
    <g id="Group_116" data-name="Group 116" transform="translate(-74.208 -1)">
      <g id="_1297046_code_compilator_css_design_sass_icon" data-name="1297046_code_compilator_css_design_sass_icon" transform="translate(1221.26 735.26)">
        <g id="Group_113" data-name="Group 113">
          <g id="Group_112" data-name="Group 112">
            <g id="Group_111" data-name="Group 111">
              <g id="Group_110" data-name="Group 110">
                <circle id="Ellipse_22" data-name="Ellipse 22" cx="17" cy="17" r="17" transform="translate(-0.26 -0.26)" fill="#6c79dc"/>
              </g>
            </g>
          </g>
        </g>
        <path id="Path_188" data-name="Path 188" d="M56.393,36.585a3.118,3.118,0,0,0-1.655-1.959,9.284,9.284,0,0,0-7.026-.034,20.029,20.029,0,0,0-6.553,3.75c-2.162,2.027-2.5,3.817-2.331,4.527.372,1.959,2.432,3.344,4.054,4.493a12.775,12.775,0,0,1,1.149.845c-.912.473-3.378,1.858-4.054,3.311a2.688,2.688,0,0,0-.068,2.365,1.59,1.59,0,0,0,.878.878,3.8,3.8,0,0,0,1.081.135,4.565,4.565,0,0,0,3.75-2.094,4.921,4.921,0,0,0,.54-4.155,5.617,5.617,0,0,1,1.858-.068,3.172,3.172,0,0,1,2.263,1.081,1.624,1.624,0,0,1,.372,1.149,1.417,1.417,0,0,1-.676.946c-.169.1-.3.2-.27.405.068.27.338.236.439.236A2.083,2.083,0,0,0,51.6,50.57a2.879,2.879,0,0,0-.845-2.094,4.106,4.106,0,0,0-3.142-1.149,6.545,6.545,0,0,0-2.094.27l-.034-.034a18.053,18.053,0,0,0-1.689-1.453c-1.351-1.013-2.6-1.993-2.534-3.446.1-1.824,1.892-3.615,5.371-5.337,3.074-1.52,5.574-1.588,6.891-1.115a1.778,1.778,0,0,1,1.047.777,2.3,2.3,0,0,1-.3,2.128A7.593,7.593,0,0,1,48.522,42.5a3.125,3.125,0,0,1-2.635-.642c-.2-.236-.338-.372-.574-.236-.27.135-.135.507-.068.642a2.792,2.792,0,0,0,1.689,1.351A8.449,8.449,0,0,0,52.17,43.1C55.007,41.956,56.967,38.916,56.393,36.585ZM44.738,50.975c-.034.068-.034.135-.068.2a.48.48,0,0,0-.068.2,2.94,2.94,0,0,1-.608.878,2.277,2.277,0,0,1-2.162.878.455.455,0,0,1-.169-.3,2.574,2.574,0,0,1,.878-1.926,9.487,9.487,0,0,1,2.3-1.655A3.676,3.676,0,0,1,44.738,50.975Z" transform="translate(-30.415 -27.194)" fill="#fff"/>
      </g>
    </g>
    <g id="Group_117" data-name="Group 117" transform="translate(-101.139 -204.234)">
      <g id="_1012818_code_development_logo_nodejs_icon" data-name="1012818_code_development_logo_nodejs_icon" transform="translate(711.139 842.577)">
        <g id="Group_98" data-name="Group 98" transform="translate(30.716 29.2)">
          <path id="Path_161" data-name="Path 161" d="M186.339,189.7a1.51,1.51,0,0,1-.756-.2l-2.406-1.423c-.359-.2-.184-.272-.065-.313a4.8,4.8,0,0,0,1.088-.495.185.185,0,0,1,.179.014l1.848,1.1a.237.237,0,0,0,.223,0l7.2-4.158a.227.227,0,0,0,.11-.195v-8.314a.233.233,0,0,0-.112-.2l-7.2-4.155a.225.225,0,0,0-.222,0l-7.2,4.156a.232.232,0,0,0-.114.2v8.314a.221.221,0,0,0,.114.193l1.974,1.14c1.071.535,1.726-.1,1.726-.729v-8.209a.207.207,0,0,1,.209-.208h.914a.208.208,0,0,1,.209.208v8.209a2,2,0,0,1-2.133,2.249,3.082,3.082,0,0,1-1.659-.451l-1.889-1.088a1.522,1.522,0,0,1-.756-1.314v-8.314a1.518,1.518,0,0,1,.756-1.313l7.2-4.163a1.579,1.579,0,0,1,1.514,0l7.2,4.163a1.521,1.521,0,0,1,.757,1.313v8.314a1.525,1.525,0,0,1-.757,1.314l-7.2,4.16A1.512,1.512,0,0,1,186.339,189.7Z" transform="translate(-177.623 -170.04)" fill="#6c79dc"/>
          <path id="Path_162" data-name="Path 162" d="M220.962,211.015c-3.153,0-3.813-1.447-3.813-2.661a.207.207,0,0,1,.208-.208h.931a.209.209,0,0,1,.207.177c.141.948.56,1.427,2.467,1.427,1.518,0,2.164-.343,2.164-1.149,0-.464-.183-.809-2.542-1.04-1.971-.195-3.19-.63-3.19-2.208,0-1.454,1.225-2.321,3.28-2.321,2.308,0,3.45.8,3.595,2.52a.208.208,0,0,1-.208.227h-.935a.207.207,0,0,1-.2-.163c-.224-1-.77-1.317-2.25-1.317-1.657,0-1.85.577-1.85,1.01,0,.524.227.677,2.465.973,2.214.293,3.266.707,3.266,2.263S223.245,211.015,220.962,211.015Z" transform="translate(-210.021 -197.083)" fill="#6c79dc"/>
        </g>
        <g id="Group_99" data-name="Group 99" transform="translate(49.269 33.023)">
          <path id="Path_163" data-name="Path 163" d="M283.278,192.629a1.388,1.388,0,1,1-1.388-1.389A1.392,1.392,0,0,1,283.278,192.629Zm-2.553,0a1.165,1.165,0,1,0,1.161-1.161A1.165,1.165,0,0,0,280.725,192.625Zm.643-.775h.537c.184,0,.544,0,.544.412a.358.358,0,0,1-.294.382c.214.015.228.154.257.353a1.537,1.537,0,0,0,.081.411h-.33c-.008-.073-.059-.47-.059-.492-.021-.088-.051-.132-.161-.132h-.272v.624h-.3V191.85Zm.294.683h.242a.209.209,0,0,0,.235-.22c0-.213-.147-.213-.228-.213h-.249v.434Z" transform="translate(-280.501 -191.24)" fill="#6c79dc"/>
        </g>
        <path id="Path_164" data-name="Path 164" d="M24.426,74.5a.921.921,0,0,0-.461-.8l-7.638-4.4a.9.9,0,0,0-.421-.122h-.079a.912.912,0,0,0-.422.122L7.767,73.7a.926.926,0,0,0-.462.8l.017,11.837a.453.453,0,0,0,.23.4.444.444,0,0,0,.458,0l4.54-2.6a.93.93,0,0,0,.462-.8v-5.53a.919.919,0,0,1,.461-.8L15.405,75.9a.918.918,0,0,1,.462-.124.9.9,0,0,1,.459.124l1.932,1.113a.92.92,0,0,1,.461.8v5.53a.932.932,0,0,0,.462.8l4.538,2.6a.45.45,0,0,0,.461,0,.461.461,0,0,0,.229-.4Z" transform="translate(-7.305 -58.172)" fill="#6c79dc"/>
        <path id="Path_165" data-name="Path 165" d="M251.007,8.186a.461.461,0,0,0-.686.4V20.311a.323.323,0,0,1-.484.28l-1.913-1.1a.923.923,0,0,0-.922,0L239.36,23.9a.922.922,0,0,0-.461.8v8.822a.923.923,0,0,0,.461.8L247,38.732a.923.923,0,0,0,.923,0l7.642-4.413a.923.923,0,0,0,.461-.8V11.529a.923.923,0,0,0-.473-.806ZM250.3,30.621a.23.23,0,0,1-.115.2l-2.624,1.512a.231.231,0,0,1-.23,0L244.7,30.82a.23.23,0,0,1-.115-.2v-3.03a.231.231,0,0,1,.115-.2l2.624-1.515a.231.231,0,0,1,.231,0l2.624,1.515a.231.231,0,0,1,.115.2v3.03Z" transform="translate(-197.132 -8.127)" fill="#6c79dc"/>
        <g id="Group_100" data-name="Group 100" transform="translate(62.702 11.118)">
          <path id="Path_166" data-name="Path 166" d="M371.606,78.044a.923.923,0,0,0,.459-.8V75.108a.922.922,0,0,0-.46-.8L364.013,69.9a.923.923,0,0,0-.925,0l-7.639,4.41a.922.922,0,0,0-.461.8v8.819a.922.922,0,0,0,.466.8l7.591,4.326a.922.922,0,0,0,.9.005l4.591-2.552a.462.462,0,0,0,.006-.8l-7.687-4.412a.461.461,0,0,1-.232-.4V78.129a.461.461,0,0,1,.231-.4l2.392-1.379a.461.461,0,0,1,.461,0l2.394,1.379a.461.461,0,0,1,.231.4V80.3a.461.461,0,0,0,.693.4Z" transform="translate(-354.989 -69.777)" fill="#6c79dc"/>
          <path id="Path_167" data-name="Path 167" d="M394.781,113.216a.176.176,0,0,1,.177,0l1.466.846a.177.177,0,0,1,.089.153v1.693a.177.177,0,0,1-.089.153l-1.466.846a.177.177,0,0,1-.177,0l-1.465-.846a.177.177,0,0,1-.089-.153v-1.693a.177.177,0,0,1,.089-.153Z" transform="translate(-386.331 -105.362)" fill="#6c79dc"/>
        </g>
        <g id="Group_106" data-name="Group 106" transform="translate(20.928 11.165)">
          <g id="Group_101" data-name="Group 101">
            <path id="XMLID_143_" d="M132.328,70.158a.917.917,0,0,0-.917,0l-7.6,4.385a.917.917,0,0,0-.459.795v8.777a.919.919,0,0,0,.459.795l7.6,4.388a.919.919,0,0,0,.918,0l7.6-4.388a.918.918,0,0,0,.459-.795V75.338a.917.917,0,0,0-.459-.795Z" transform="translate(-123.353 -70.035)" fill="#6c79dc"/>
          </g>
          <g id="Group_103" data-name="Group 103">
            <g id="Group_102" data-name="Group 102" clip-path="url(#clip-path-2)">
              <path id="Path_168" data-name="Path 168" d="M131.105,70.161l-7.614,4.385a.948.948,0,0,0-.491.795v8.777a.888.888,0,0,0,.237.584l8.555-14.635A.932.932,0,0,0,131.105,70.161Z" transform="translate(-123.064 -70.038)" fill="none"/>
              <path id="Path_169" data-name="Path 169" d="M171.988,110.589a.912.912,0,0,0,.214-.089l7.606-4.388a.937.937,0,0,0,.478-.795V96.54a.907.907,0,0,0-.278-.637Z" transform="translate(-163.217 -91.238)" fill="none"/>
              <path id="Path_170" data-name="Path 170" d="M140.727,74.671l-7.62-4.385a.908.908,0,0,0-.238-.095l-8.555,14.635a1.047,1.047,0,0,0,.256.211l7.633,4.388a.927.927,0,0,0,.709.089l8.02-14.686A1.011,1.011,0,0,0,140.727,74.671Z" transform="translate(-124.14 -70.163)" fill="#6c79dc"/>
            </g>
          </g>
          <g id="Group_105" data-name="Group 105">
            <g id="Group_104" data-name="Group 104" clip-path="url(#clip-path-2)">
              <path id="Path_172" data-name="Path 172" d="M179.906,84.205V75.428a.94.94,0,0,0-.482-.795l-7.62-4.385a.916.916,0,0,0-.28-.1l8.353,14.27A.832.832,0,0,0,179.906,84.205Z" transform="translate(-162.837 -70.126)" fill="none"/>
              <path id="Path_173" data-name="Path 173" d="M123.491,94.911a.948.948,0,0,0-.491.795v8.777a.952.952,0,0,0,.493.795l7.633,4.388a.925.925,0,0,0,.587.114l-8.176-14.9Z" transform="translate(-123.064 -90.404)" fill="none"/>
              <path id="Path_174" data-name="Path 174" d="M166.152,61.779l-.1.06h.14Z" transform="translate(-158.347 -63.268)" fill="#6c79dc"/>
              <path id="Path_175" data-name="Path 175" d="M142.094,84.917a.96.96,0,0,0,.449-.584l-8.353-14.27a.93.93,0,0,0-.646.1l-7.569,4.359,8.176,14.9a.921.921,0,0,0,.336-.114Z" transform="translate(-125.503 -70.043)" fill="#6c79dc"/>
              <path id="Path_176" data-name="Path 176" d="M219.05,151.339l-.05-.086v.115Z" transform="translate(-201.751 -136.606)" fill="#6c79dc"/>
              <path id="Path_177" data-name="Path 177" d="M179.255,149.859l-7.606,4.389a.918.918,0,0,1-.336.114l.152.276,8.449-4.89v-.115l-.209-.357A.96.96,0,0,1,179.255,149.859Z" transform="translate(-162.664 -134.985)" fill="#6c79dc"/>
              <path id="Path_178" data-name="Path 178" d="M179.255,149.859l-7.606,4.389a.918.918,0,0,1-.336.114l.152.276,8.449-4.89v-.115l-.209-.357A.96.96,0,0,1,179.255,149.859Z" transform="translate(-162.664 -134.985)" fill="#6c79dc"/>
            </g>
          </g>
        </g>
      </g>
    </g>
    <g id="Group_120" data-name="Group 120" transform="translate(980.65 3686)">
      <path id="_4691284_mongodb_icon" data-name="4691284_mongodb_icon" d="M27.742,19.036C25.216,7.916,19.258,4.262,18.618,2.864A17.971,17.971,0,0,1,17.152,0c0,.038-.008.062-.01.1V.124h0c0,.03-.006.05-.008.078v.03h0c0,.02,0,.036,0,.052V.336h-.006a.38.38,0,0,1-.006.05V.428h0a.143.143,0,0,1,0,.042V.51h0c0,.02,0,.044,0,.064v0c-.006.034-.012.068-.018.1V.694h0a.105.105,0,0,0-.006.024V.752h-.006V.8h-.01V.832h-.01V.874h-.008V.912h-.008V.946h-.012V.974h-.008V1.01H17v.028h-.01v.026h-.006v.03h-.008a.012.012,0,0,0,0,.008v.02h-.006a.025.025,0,0,0,0,.012v.012h0a.088.088,0,0,0,0,.02c-.006.014-.014.028-.02.042v0a.061.061,0,0,0-.01.014v.016h-.008v.016h-.01v.016H16.9v.02H16.89v.028h-.008V1.33h-.008v.016h-.008v.022h-.008v.016h-.012v.022h-.008v.016h-.01v.016h-.006v.02h-.01v.016H16.8v.012H16.8V1.5h-.012V1.52h-.008v.012h-.01v.016h-.008V1.57h-.01v.008h-.006v.016H16.73V1.6h-.008v.02h-.008V1.63h-.008v.016H16.7v.012H16.69l0,.008v.008h0s0,0,0,.008v0h0a.032.032,0,0,1-.008.014V1.7h0a.375.375,0,0,0-.024.036v0a.09.09,0,0,0-.018.02v0h0s-.006,0-.006.006v.006h0l-.006.006v0h0s0,0-.006.008V1.8h-.006l0,0v0h0s0,0,0,.006v.006h-.008s0,0,0,.006V1.84h-.006v.008h-.008V1.86h-.008v.016h-.01V1.86h-.01v.008h-.008V1.88h-.01V1.9H16.5V1.9H16.49v.012h-.008v.008h-.008V1.94h-.012v.008h-.008V1.96h-.01v.008h-.008v.01h-.01V2h0v.008H16.41v.01H16.4v0h-.008v.008h-.01v.02h-.008v.008h-.01v.008h-.008v.012h-.01v.008h-.01v.008H16.33V2.1h-.008v.02h-.008v.01H16.3v.008h-.008v.008h-.01v.012h-.008v.008h-.01V2.18h-.008v.008h-.012V2.2h0v.008h-.008v.008h-.01v.008h-.008v.012h-.01v.008H16.2a.006.006,0,0,0,0,0v0h0l-.008.008a.037.037,0,0,1-.008.006v.012H16.17v.01h-.008V2.3h-.008V2.3h-.006l-.006.006v.006h0l0,0v.006h0a.2.2,0,0,1-.028.032l-.024.02A.732.732,0,0,0,16,2.442a.421.421,0,0,0-.044.034v0h0l-.1.078v0l-.148.124v0h0c-.114.094-.234.2-.372.318V3h0c-.338.3-.74.676-1.19,1.136l-.03.03-.008.008A27.537,27.537,0,0,0,6.644,22.328a20.732,20.732,0,0,0,.012,2.288v.018a21.791,21.791,0,0,0,2.856,9.512v0a25.051,25.051,0,0,0,1.852,2.81v0a25.594,25.594,0,0,0,5.028,5.052,16.711,16.711,0,0,1,.8,5.558L18.48,48a23.987,23.987,0,0,1,.106-5.044,3.116,3.116,0,0,1,.7-1.324,16.762,16.762,0,0,0,1.594-1.29c.036-.038.056-.072.088-.108,3.042-2.836,8.724-9.82,6.776-21.2Z" transform="translate(-339.379 -3191)" fill="#6c79dc"/>
    </g>
    <g id="Group_121" data-name="Group 121" transform="translate(958.65 3962)">
      <g id="_2993773_git_social_media_icon" data-name="2993773_git_social media_icon" transform="translate(-218.8 -3227.8)">
        <path id="Path_182" data-name="Path 182" d="M32.986,15.3h0L18.286.6a2.15,2.15,0,0,0-2.971,0L.614,15.3a2.1,2.1,0,0,0,0,2.971l14.7,14.708a2.1,2.1,0,0,0,2.971,0l14.7-14.709a2.1,2.1,0,0,0,0-2.971Z" transform="translate(0 0)" fill="#6c79dc"/>
        <path id="Path_183" data-name="Path 183" d="M33.143,12.859,18.289,27.721a2.121,2.121,0,0,1-3,0L.436,12.859a2.118,2.118,0,0,1-.409-.591,2.085,2.085,0,0,0,.578,1.1L15.3,28.077a2.1,2.1,0,0,0,2.971,0l14.7-14.709a2.085,2.085,0,0,0,.578-1.1A2.122,2.122,0,0,1,33.143,12.859Z" transform="translate(0.011 4.907)" fill="#010101" opacity="0.1"/>
        <path id="Path_184" data-name="Path 184" d="M20.668,12.868a2.77,2.77,0,0,0-1.431.406L16.062,10.1a2.77,2.77,0,0,0,.406-1.431,2.8,2.8,0,0,0-2.8-2.8,2.768,2.768,0,0,0-1.414.4L8.819,2.83l-.99.99,3.435,3.436a2.768,2.768,0,0,0-.4,1.413,2.8,2.8,0,0,0,2.1,2.7v8.6a2.8,2.8,0,1,0,1.4,0v-8.6a2.77,2.77,0,0,0,.7-.288l3.192,3.192a2.766,2.766,0,0,0-.387,1.4,2.8,2.8,0,1,0,2.8-2.8Z" transform="translate(3.132 1.132)" fill="#fff"/>
        <path id="Path_185" data-name="Path 185" d="M.614,15.655,15.315.945a2.15,2.15,0,0,1,2.971,0l14.7,14.708h0a2.087,2.087,0,0,1,.6,1.31c0-.059.017-.116.017-.175a2.094,2.094,0,0,0-.614-1.485h0L18.286.6a2.15,2.15,0,0,0-2.971,0L.614,15.3A2.094,2.094,0,0,0,0,16.79c0,.059.012.116.017.175A2.088,2.088,0,0,1,.614,15.655Z" transform="translate(0 0)" fill="#fff" opacity="0.2"/>
        <path id="Path_186" data-name="Path 186" d="M21.7,12.741a2.772,2.772,0,0,1,.632,1.749,2.8,2.8,0,0,1-5.6,0,2.767,2.767,0,0,1,.387-1.4L13.927,9.9a2.769,2.769,0,0,1-.7.288v8.6a2.793,2.793,0,1,1-2.559,4.778L15.9,28.793,26.821,17.862ZM14.925,8.922,18.1,12.1a2.732,2.732,0,0,1,3.181.225L14.732,5.774l0,0a2.732,2.732,0,0,1,.2,3.145Z" transform="translate(4.269 2.309)" fill="url(#linear-gradient)"/>
        <path id="Path_187" data-name="Path 187" d="M32.986,15.3h0L18.286.6a2.15,2.15,0,0,0-2.971,0L.614,15.3a2.1,2.1,0,0,0,0,2.971l14.7,14.708a2.1,2.1,0,0,0,2.971,0l14.7-14.709a2.1,2.1,0,0,0,0-2.971Z" transform="translate(0 0)" fill="url(#linear-gradient-2)"/>
      </g>
    </g>
    <g id="Group_119" data-name="Group 119" transform="translate(240.683 69)">
      <path id="_9035061_logo_javascript_icon" data-name="9035061_logo_javascript_icon" d="M32,32V70.78H70.78V32ZM52.775,62.124c0,3.775-2.23,5.615-5.458,5.615a5.655,5.655,0,0,1-5.466-3.332h0l2.967-1.8c.572,1.015,1.007,1.874,2.256,1.874,1.039,0,1.892-.468,1.892-2.29V50h3.809Zm8.6,5.529c-3.384,0-5.57-1.527-6.638-3.636h0l2.972-1.72A3.892,3.892,0,0,0,61.3,64.423c1.51,0,2.387-.668,2.387-1.71,0-1.249-.9-1.691-2.569-2.424l-.911-.391c-2.63-1.118-4.373-2.524-4.373-5.492,0-2.733,2.082-4.729,5.336-4.729a5.314,5.314,0,0,1,5.181,2.829l-2.843,1.827a2.475,2.475,0,0,0-2.342-1.558,1.585,1.585,0,0,0-1.744,1.558c0,1.093.677,1.536,2.239,2.213l.911.39c3.1,1.328,4.842,2.683,4.842,5.727C67.414,65.944,64.837,67.652,61.375,67.652Z" transform="translate(667.927 688.927)" fill="#6c79dc"/>
    </g>
  </g>
</svg>
