<svg xmlns="http://www.w3.org/2000/svg" width="64.712" height="71.18" viewBox="0 0 64.712 71.18">
  <g id="Expanded" transform="translate(-4 -2)">
    <g id="Group_17" data-name="Group 17" transform="translate(4 2)">
      <g id="Group_13" data-name="Group 13">
        <path id="Path_3" data-name="Path 3" d="M36.356,31.12C18.211,31.12,4,24.725,4,16.56S18.211,2,36.356,2,68.712,8.4,68.712,16.56,54.5,31.12,36.356,31.12Zm0-25.884c-13.774,0-29.12,4.65-29.12,11.324s15.346,11.324,29.12,11.324,29.12-4.65,29.12-11.324S50.128,5.236,36.356,5.236Z" transform="translate(-4 -2)" fill="#4633c5"/>
      </g>
      <g id="Group_14" data-name="Group 14" transform="translate(0 12.942)">
        <path id="Path_4" data-name="Path 4" d="M36.356,39.12C18.211,39.12,4,32.725,4,24.56V11.618a1.618,1.618,0,0,1,3.236,0V24.56c0,6.673,15.346,11.324,29.12,11.324s29.12-4.65,29.12-11.324V11.618a1.618,1.618,0,1,1,3.236,0V24.56C68.71,32.725,54.5,39.12,36.356,39.12Z" transform="translate(-4 -9.999)" fill="#4633c5"/>
      </g>
      <g id="Group_15" data-name="Group 15" transform="translate(0 25.883)">
        <path id="Path_5" data-name="Path 5" d="M36.356,48.737C18.211,48.737,4,42.342,4,34.177V19.618a1.618,1.618,0,0,1,3.236,0v14.56c0,6.673,15.346,11.324,29.12,11.324s29.12-4.65,29.12-11.324V19.618a1.618,1.618,0,0,1,3.236,0v14.56C68.71,42.342,54.5,48.737,36.356,48.737Z" transform="translate(-4 -18)" fill="#4633c5"/>
      </g>
      <g id="Group_16" data-name="Group 16" transform="translate(0 40.443)">
        <path id="Path_6" data-name="Path 6" d="M36.356,57.737C18.211,57.737,4,51.342,4,43.177V28.618a1.618,1.618,0,0,1,3.236,0v14.56c0,6.673,15.346,11.324,29.12,11.324s29.12-4.65,29.12-11.324V28.618a1.618,1.618,0,0,1,3.236,0v14.56C68.71,51.342,54.5,57.737,36.356,57.737Z" transform="translate(-4 -27)" fill="#4633c5"/>
      </g>
    </g>
  </g>
</svg>
