<svg xmlns="http://www.w3.org/2000/svg" width="32" height="23" viewBox="0 0 32 23">
  <path id="Mail_2" data-name="Mail 2" d="M191.667,301.91h-24a4,4,0,0,0-4,4v15a4,4,0,0,0,4,4h24a4,4,0,0,0,4-4v-15A4,4,0,0,0,191.667,301.91Zm-18.293,14.707-4,4a1,1,0,0,1-1.414-1.414l4-4a1,1,0,1,1,1.414,1.414Zm6.293,1.293a1,1,0,0,1-.634-.226l-11-9a1,1,0,0,1,1.267-1.548l10.367,8.482,10.366-8.482a1,1,0,1,1,1.267,1.548l-11,9A1,1,0,0,1,179.667,317.91Zm11.707,2.707a1,1,0,0,1-1.414,0l-4-4a1,1,0,1,1,1.414-1.414l4,4A1,1,0,0,1,191.374,320.617Z" transform="translate(-163.667 -301.91)" fill="#fff"/>
</svg>
