<svg xmlns="http://www.w3.org/2000/svg" width="48" height="48" viewBox="0 0 48 48">
  <g id="github" transform="translate(-11.536 -11.538)">
    <g id="github-2" data-name="github" transform="translate(11.536 11.538)">
      <path id="Path_44" data-name="Path 44" d="M18.587,47.306c0-.585-.02-2.131-.033-4.191-6.674,1.49-8.083-3.3-8.083-3.3a6.479,6.479,0,0,0-2.663-3.6c-2.179-1.527.165-1.495.165-1.495a5.053,5.053,0,0,1,3.676,2.531,5.041,5.041,0,0,0,6.99,2.049,5.312,5.312,0,0,1,1.523-3.29c-5.328-.621-10.93-2.729-10.93-12.161a9.643,9.643,0,0,1,2.468-6.6,9.057,9.057,0,0,1,.241-6.508s2.016-.66,6.6,2.531a22.172,22.172,0,0,1,12.016,0c4.579-3.184,6.592-2.523,6.592-2.523a9.04,9.04,0,0,1,.241,6.508,9.631,9.631,0,0,1,2.466,6.6c0,9.453-5.611,11.533-10.957,12.142a5.945,5.945,0,0,1,1.629,4.553c0,3.29-.031,5.944-.031,6.749,0,.659.433,1.423,1.652,1.184a24.567,24.567,0,0,0,16.39-23.344,24.308,24.308,0,0,0-24-24.611A24.306,24.306,0,0,0,.538,25.145,24.566,24.566,0,0,0,16.95,48.492C18.149,48.717,18.587,47.961,18.587,47.306Z" transform="translate(-0.536 -0.538)" fill="#4633c5" fill-rule="evenodd"/>
    </g>
  </g>
</svg>
