<svg xmlns="http://www.w3.org/2000/svg" width="32" height="32" viewBox="0 0 32 32">
  <g id="instagram" transform="translate(-3.4 -4.8)">
    <path id="Path_145" data-name="Path 145" d="M23.659,16.7a8.259,8.259,0,1,0,8.259,8.259A8.259,8.259,0,0,0,23.659,16.7Zm0,13.548a5.29,5.29,0,1,1,5.289-5.289A5.29,5.29,0,0,1,23.659,30.248Z" transform="translate(-4.258 -4.223)" fill="#fff"/>
    <circle id="Ellipse_27" data-name="Ellipse 27" cx="1.871" cy="1.871" r="1.871" transform="translate(26.109 10.413)" fill="#fff"/>
    <path id="Path_146" data-name="Path 146" d="M32.819,7.445A9.188,9.188,0,0,0,26.045,4.8H12.755C7.142,4.8,3.4,8.542,3.4,14.155V27.38a9.285,9.285,0,0,0,2.71,6.9,9.416,9.416,0,0,0,6.71,2.516H25.98a9.526,9.526,0,0,0,6.774-2.516A9.237,9.237,0,0,0,35.4,27.445V14.155A9.251,9.251,0,0,0,32.819,7.445Zm-.259,20a6.3,6.3,0,0,1-1.871,4.71,6.669,6.669,0,0,1-4.71,1.677H12.819a6.669,6.669,0,0,1-4.71-1.677A6.485,6.485,0,0,1,6.368,27.38V14.155A6.432,6.432,0,0,1,8.11,9.445a6.561,6.561,0,0,1,4.71-1.677h13.29a6.432,6.432,0,0,1,4.71,1.742,6.659,6.659,0,0,1,1.742,4.645v13.29Z" fill="#fff"/>
  </g>
</svg>
