<svg xmlns="http://www.w3.org/2000/svg" width="48" height="47.786" viewBox="0 0 48 47.786">
  <path id="Path_18" data-name="Path 18" d="M10.122,46.935v-31.6H.35v31.6Zm0-42.8a4.8,4.8,0,0,0-5-4.981A4.819,4.819,0,0,0,.054,4.136,4.79,4.79,0,0,0,5,9.118h.058a4.82,4.82,0,0,0,5.065-4.982Zm15.933,42.8v-18a7.326,7.326,0,0,1,.353-2.615,5.865,5.865,0,0,1,5.5-3.925c3.878,0,6.31,2.2,6.31,6.533v18H48.05V28.45c0-9.9-5.287-14.51-12.337-14.51a10.679,10.679,0,0,0-9.73,5.428l.071-4.226H16.239c.142,3.025,0,31.791,0,31.791Z" transform="translate(-0.05 0.851)" fill="#4633c5" fill-rule="evenodd"/>
</svg>
