<svg xmlns="http://www.w3.org/2000/svg" width="80" height="71.18" viewBox="0 0 80 71.18">
  <path id="_4691292_react_native_react_icon" data-name="4691292_react native_react_icon" d="M40,29.782a7.13,7.13,0,1,0,7.13,7.13A7.13,7.13,0,0,0,40,29.782ZM20.027,51.1l-1.573-.4C6.72,47.731,0,42.7,0,36.9S6.72,26.065,18.453,23.1l1.573-.4.443,1.56a78.431,78.431,0,0,0,4.544,11.926l.336.71-.336.71a77.691,77.691,0,0,0-4.544,11.926L20.026,51.1Zm-2.3-24.35C8.81,29.249,3.339,33.078,3.339,36.9s5.47,7.646,14.384,10.154A83.166,83.166,0,0,1,21.664,36.9a82.506,82.506,0,0,1-3.939-10.154ZM59.973,51.1l-.443-1.563a77.857,77.857,0,0,0-4.546-11.926l-.336-.71.336-.71a78.067,78.067,0,0,0,4.547-11.926l.443-1.56,1.576.4C73.28,26.062,80,31.091,80,36.9S73.28,47.732,61.55,50.7ZM58.336,36.9a82.42,82.42,0,0,1,3.941,10.147c8.917-2.507,14.384-6.336,14.384-10.154s-5.47-7.646-14.384-10.154a82.627,82.627,0,0,1-3.939,10.154ZM17.7,26.726l-.443-1.557C13.96,13.551,14.96,5.225,20,2.318c4.944-2.853,12.88.517,21.2,9.048l1.133,1.163L41.2,13.692a78.507,78.507,0,0,0-8.077,9.9l-.45.64-.784.067A78.857,78.857,0,0,0,19.27,26.329l-1.573.4Zm6.32-22.1a4.651,4.651,0,0,0-2.35.576c-3.314,1.91-3.9,8.55-1.616,17.51a83.738,83.738,0,0,1,10.776-1.67,82.824,82.824,0,0,1,6.84-8.48c-5.2-5.064-10.123-7.936-13.65-7.936ZM55.984,72.5h0c-4.75,0-10.85-3.576-17.179-10.08l-1.133-1.163L38.8,60.1A78.436,78.436,0,0,0,46.88,50.2l.45-.64.779-.067a78.767,78.767,0,0,0,12.624-2.03l1.573-.4.446,1.56C66.042,60.243,65.045,68.574,60,71.476A7.933,7.933,0,0,1,55.989,72.5ZM42.331,61.231c5.2,5.064,10.123,7.936,13.65,7.936h0a4.64,4.64,0,0,0,2.347-.576c3.314-1.91,3.9-8.554,1.616-17.514a83.4,83.4,0,0,1-10.779,1.67,82.24,82.24,0,0,1-6.835,8.483ZM62.3,26.726l-1.573-.4A78.262,78.262,0,0,0,48.1,24.3l-.781-.067-.45-.64A78.046,78.046,0,0,0,38.8,13.7L37.67,12.535,38.8,11.372C47.117,2.838,55.05-.532,60,2.318c5.04,2.907,6.04,11.234,2.747,22.85l-.446,1.56ZM49.168,21.043a83.127,83.127,0,0,1,10.779,1.67c2.286-8.96,1.7-15.6-1.616-17.51s-9.483,1.013-16,7.36a82.834,82.834,0,0,1,6.837,8.48ZM24.019,72.5A7.933,7.933,0,0,1,20,71.475c-5.04-2.9-6.04-11.23-2.744-22.846l.44-1.56,1.573.4A78.68,78.68,0,0,0,31.885,49.5l.784.067.446.64A78.656,78.656,0,0,0,41.189,60.1l1.133,1.163-1.133,1.163c-6.326,6.5-12.427,10.08-17.17,10.08ZM20.053,51.078c-2.286,8.96-1.7,15.6,1.616,17.514,3.29,1.877,9.477-1.016,16-7.36a83.327,83.327,0,0,1-6.84-8.48,83.252,83.252,0,0,1-10.776-1.67ZM40,53.171c-2.744,0-5.563-.12-8.387-.354l-.784-.067-.45-.64q-2.4-3.442-4.5-7.074t-3.886-7.43l-.333-.71.333-.71q1.789-3.792,3.886-7.427c1.379-2.387,2.9-4.766,4.5-7.074l.45-.64.784-.067a99.284,99.284,0,0,1,16.776,0l.779.067.446.64A100.016,100.016,0,0,1,58,36.185l.336.71-.336.71a98.667,98.667,0,0,1-8.39,14.5l-.446.64-.779.067c-2.824.234-5.646.354-8.39.354Zm-7.323-3.613a96.815,96.815,0,0,0,14.65,0A96.687,96.687,0,0,0,54.646,36.9a95.284,95.284,0,0,0-7.323-12.659,96.769,96.769,0,0,0-14.646,0A94.923,94.923,0,0,0,25.354,36.9a97.045,97.045,0,0,0,7.323,12.659Z" transform="translate(0 -1.324)" fill="#4633c5"/>
</svg>
