<svg xmlns="http://www.w3.org/2000/svg" width="31.759" height="32" viewBox="0 0 31.759 32">
  <g id="whatsapp" transform="translate(-13.154 -13.245)">
    <g id="whatsapp-2" data-name="whatsapp" transform="translate(13.154 13.245)">
      <path id="Path_144" data-name="Path 144" d="M16.321,31.427A15.616,15.616,0,0,1,8.787,29.5L.154,32.245l2.814-8.3A15.311,15.311,0,0,1,.731,15.957a15.591,15.591,0,1,1,15.59,15.47Zm0-28.476A13.072,13.072,0,0,0,3.214,15.957a12.873,12.873,0,0,0,2.5,7.626l-1.639,4.83,5.037-1.6A13.12,13.12,0,0,0,29.429,15.957,13.073,13.073,0,0,0,16.321,2.951ZM24.194,19.52c-.1-.158-.351-.253-.732-.443S21.2,17.97,20.85,17.844s-.6-.19-.86.189S19,19.266,18.781,19.519s-.446.285-.828.1a10.456,10.456,0,0,1-3.074-1.882,11.418,11.418,0,0,1-2.125-2.625c-.223-.38-.024-.584.168-.773.172-.17.382-.443.573-.664a2.563,2.563,0,0,0,.38-.63.693.693,0,0,0-.032-.664c-.1-.189-.86-2.055-1.179-2.815s-.636-.632-.859-.632-.478-.032-.733-.032a1.41,1.41,0,0,0-1.019.474,4.24,4.24,0,0,0-1.339,3.161,7.349,7.349,0,0,0,1.56,3.921c.19.253,2.643,4.206,6.527,5.724s3.886,1.012,4.587.948a3.859,3.859,0,0,0,2.579-1.8,3.155,3.155,0,0,0,.223-1.8Z" transform="translate(-0.154 -0.245)" fill="#fff" fill-rule="evenodd"/>
    </g>
  </g>
</svg>
