<svg xmlns="http://www.w3.org/2000/svg" width="95.036" height="100" viewBox="0 0 95.036 100">
  <g id="Group_138" data-name="Group 138" transform="translate(-201 4108.657)">
    <path id="Subtraction_2" data-name="Subtraction 2" d="M47.59,53.061a19.188,19.188,0,0,1-8.209-1.854A18.816,18.816,0,0,1,32.6,45.754L0,4.03A18.817,18.817,0,0,1,11.688,0,19.189,19.189,0,0,1,19.9,1.854,18.815,18.815,0,0,1,26.68,7.306L47.967,34.554,69.255,7.306A19.3,19.3,0,0,1,70.6,5.764v30.7l-7.261,9.294a18.815,18.815,0,0,1-6.783,5.452,19.19,19.19,0,0,1-8.209,1.854c-.141,0-.265,0-.378,0S47.715,53.061,47.59,53.061Z" transform="translate(201 -4088.135)" fill="#fefdfc"/>
    <path id="Subtraction_1" data-name="Subtraction 1" d="M19.007,66.525h0A19.006,19.006,0,0,1,0,47.518V0H.016L19.007,24.746Z" transform="translate(201 -4075.182)" fill="#fefdfc"/>
    <path id="Rectangle_28" data-name="Rectangle 28" d="M0,0H0A19.007,19.007,0,0,1,19.007,19.007V76.028a0,0,0,0,1,0,0h0A19.007,19.007,0,0,1,0,57.021V0A0,0,0,0,1,0,0Z" transform="translate(277.029 -4084.685)" fill="#fefdfc"/>
    <rect id="Rectangle_29" data-name="Rectangle 29" width="12.074" height="12.074" transform="translate(286.532 -4108.657) rotate(45)" fill="#fefdfc" opacity="0.5"/>
  </g>
</svg>
