<?xml version="1.0" standalone="no"?>
<!DOCTYPE svg PUBLIC "-//W3C//DTD SVG 20010904//EN"
 "http://www.w3.org/TR/2001/REC-SVG-20010904/DTD/svg10.dtd">
<svg version="1.0" xmlns="http://www.w3.org/2000/svg"
 width="800.000000pt" height="800.000000pt" viewBox="0 0 800.000000 800.000000"
 preserveAspectRatio="xMidYMid meet">
<metadata>
Created by potrace 1.14, written by Peter Selinger 2001-2017
</metadata>
<g transform="translate(0.000000,800.000000) scale(0.100000,-0.100000)"
fill="#000000" stroke="none">
<path d="M7029 7969 c-5 -11 -14 -17 -20 -14 -5 4 -8 1 -7 -6 2 -7 -3 -13 -10
-14 -7 0 -21 -13 -31 -28 -10 -16 -21 -28 -25 -28 -3 1 -7 -2 -8 -6 -6 -18
-32 -41 -41 -36 -6 3 -7 1 -3 -5 4 -7 2 -12 -3 -12 -6 0 -11 -4 -11 -8 0 -5 7
-9 15 -9 8 0 12 3 10 7 -2 3 5 6 15 7 11 1 22 -2 25 -8 3 -5 -1 -6 -9 -3 -9 3
-16 1 -16 -6 0 -6 4 -9 9 -5 5 3 13 0 17 -6 5 -8 3 -9 -6 -4 -8 5 -11 4 -7 -3
8 -12 32 -10 44 3 4 4 3 5 -3 2 -6 -3 -11 0 -11 8 0 16 12 20 20 8 2 -5 3 -3
1 4 -1 6 0 14 4 17 10 10 11 37 1 30 -5 -3 -9 -12 -9 -20 0 -8 -5 -14 -11 -14
-7 0 -4 11 7 28 17 26 17 27 -2 12 -17 -14 -18 -14 -6 2 8 9 11 23 7 30 -4 7
1 4 10 -7 9 -11 20 -20 25 -20 4 0 12 -4 17 -9 5 -6 2 -6 -7 -1 -12 7 -13 6
-3 -7 7 -8 9 -19 5 -24 -4 -4 1 -2 11 5 15 12 20 11 37 -4 11 -10 17 -22 14
-26 -3 -5 0 -9 6 -9 7 0 9 7 6 16 -3 8 -2 12 3 9 6 -3 9 -14 8 -25 -1 -10 -6
-16 -12 -12 -5 3 -4 -1 2 -10 7 -8 11 -17 8 -20 -3 -2 2 -5 10 -5 8 0 12 3 10
7 -6 10 37 6 54 -4 10 -7 12 -6 6 4 -5 8 -4 11 3 6 6 -3 9 -15 7 -26 -2 -11 6
-30 18 -43 13 -13 16 -15 7 -3 -12 15 -12 18 -1 11 10 -6 12 -4 6 6 -7 11 -5
11 11 -1 17 -13 18 -13 8 0 -14 18 -14 51 -1 43 6 -4 7 -1 2 7 -6 9 -4 11 5 5
8 -5 11 -4 7 2 -3 5 1 10 9 10 10 0 11 -4 4 -11 -15 -15 -12 -30 3 -17 10 8
14 7 14 -4 0 -8 -5 -11 -10 -8 -6 3 -7 1 -3 -5 11 -19 29 -14 22 6 -5 14 -3
13 9 -3 15 -19 14 -22 -11 -42 -16 -12 -31 -20 -35 -17 -4 2 -10 0 -14 -6 -3
-5 1 -10 9 -10 9 0 16 -4 16 -10 0 -12 -22 -9 -33 5 -5 6 -6 2 -3 -8 4 -13 2
-16 -7 -11 -8 5 -8 2 2 -9 7 -9 17 -14 22 -11 5 3 9 1 9 -5 0 -5 -3 -11 -7
-14 -5 -2 -3 -3 3 -1 6 1 17 -3 23 -9 8 -8 14 -8 24 2 6 7 8 12 2 11 -23 -5
-36 1 -33 13 3 6 14 12 25 13 20 1 24 -19 8 -46 -5 -8 7 -3 26 10 25 18 30 20
19 6 -14 -18 -14 -18 7 -5 16 9 19 16 10 21 -9 6 -8 8 2 8 11 0 9 4 -5 14 -16
12 -17 17 -6 28 11 11 12 10 6 -6 -6 -16 -4 -18 10 -13 11 5 15 3 10 -5 -5 -7
-3 -8 6 -3 9 6 11 4 5 -5 -5 -8 -4 -11 2 -7 5 3 20 -8 33 -25 12 -17 17 -27
10 -23 -9 5 -11 4 -6 -3 11 -17 29 -15 22 3 -8 22 2 18 15 -6 9 -17 8 -20 -2
-14 -7 5 -10 4 -5 -3 3 -6 15 -9 26 -7 14 3 17 -1 13 -13 -3 -11 -2 -13 4 -6
6 9 12 8 21 -2 11 -12 10 -14 -12 -10 -28 5 -52 -16 -40 -35 5 -8 3 -9 -7 -4
-11 7 -11 5 1 -10 11 -14 12 -19 2 -22 -6 -3 -10 -9 -7 -13 3 -5 12 -7 20 -4
10 4 12 11 6 23 -8 14 -5 17 14 17 15 0 21 -5 18 -13 -6 -14 7 -17 23 -5 5 4
1 -1 -9 -10 -11 -10 -14 -18 -8 -18 7 0 -1 -12 -16 -26 -15 -14 -21 -22 -13
-18 12 6 13 5 2 -7 -11 -12 -14 -12 -22 1 -5 8 -6 18 -3 24 3 5 1 6 -5 2 -7
-4 -10 -2 -9 6 2 7 2 10 0 6 -8 -13 -20 -9 -20 7 0 8 5 11 11 8 6 -3 5 0 -1 7
-17 19 -40 21 -40 4 0 -7 5 -10 10 -7 6 3 7 1 3 -6 -4 -6 -12 -9 -17 -6 -5 4
-9 1 -9 -5 0 -7 7 -10 15 -6 22 8 18 -2 -6 -15 -17 -9 -20 -8 -13 3 6 9 3 9
-11 -2 -17 -13 -18 -13 -10 0 7 12 6 13 -7 3 -8 -7 -18 -9 -23 -5 -4 4 -2 -4
5 -17 10 -19 10 -22 -2 -15 -10 6 -11 5 -1 -8 7 -8 9 -19 5 -23 -4 -5 4 -2 18
7 14 8 33 14 43 12 11 -1 16 0 13 3 -3 3 2 12 12 20 11 9 11 12 2 7 -12 -6
-13 -4 -3 6 20 21 27 4 9 -22 -16 -22 -24 -54 -8 -33 4 6 16 17 27 25 19 14
20 14 2 -6 -9 -11 -14 -24 -10 -29 5 -4 2 -5 -6 0 -9 5 -12 4 -8 -3 8 -12 32
-10 44 3 4 4 2 5 -6 0 -10 -5 -12 -4 -7 4 4 6 12 9 17 6 5 -4 9 -1 9 4 0 15
-13 14 -29 -1 -11 -10 -12 -10 -7 -1 4 7 16 18 28 24 16 9 19 8 12 -3 -6 -9
-3 -9 11 2 17 13 18 13 10 0 -7 -12 -6 -13 7 -3 8 7 18 10 22 6 4 -4 4 0 1 9
-4 9 -1 19 5 23 14 9 42 -14 33 -28 -4 -6 -1 -7 8 -1 8 5 21 9 29 9 8 0 22 4
30 10 13 8 13 7 0 -10 -12 -15 -12 -17 -1 -10 10 6 12 4 6 -6 -7 -11 -5 -11
10 1 18 14 18 14 2 -11 -10 -14 -14 -29 -10 -34 5 -4 2 -5 -6 0 -10 6 -12 4
-6 -5 6 -9 4 -11 -5 -5 -9 6 -11 4 -5 -6 5 -8 5 -11 0 -7 -4 4 -15 2 -23 -5
-13 -10 -14 -9 -7 3 6 12 6 13 -6 2 -12 -11 -12 -14 1 -22 8 -5 10 -10 5 -10
-6 0 -17 6 -25 13 -11 9 -11 8 0 -7 12 -16 13 -18 1 -11 -10 6 -12 4 -6 -5 5
-8 4 -11 -3 -6 -12 7 -11 -12 3 -34 5 -9 -1 -7 -16 5 l-24 20 15 -20 c14 -20
14 -20 -6 -2 -12 10 -28 17 -35 15 -8 -2 -13 3 -11 10 2 10 -2 10 -19 1 -17
-9 -20 -8 -13 3 6 10 5 11 -7 2 -8 -6 -22 -10 -31 -9 -15 3 -16 0 -8 -16 13
-24 21 -25 14 -1 -5 14 -4 15 5 2 9 -13 11 -13 11 -1 0 11 3 10 13 -3 12 -16
17 -17 36 -6 19 10 26 9 37 -4 8 -9 9 -11 2 -6 -16 13 -28 13 -28 -1 0 -5 4
-8 9 -4 13 8 22 -10 15 -30 -6 -14 -8 -14 -27 2 -11 10 -17 12 -12 4 6 -10 4
-12 -5 -6 -8 5 -11 4 -7 -1 3 -6 2 -16 -4 -24 -7 -13 -9 -13 -9 -1 0 11 -4 10
-13 -4 -9 -11 -19 -15 -27 -10 -8 5 -11 4 -7 -2 4 -6 -1 -19 -11 -30 -9 -10
-14 -14 -9 -9 10 14 9 26 -4 26 -5 0 -8 -4 -4 -9 3 -5 1 -13 -5 -16 -8 -5 -6
-14 4 -29 9 -15 11 -28 5 -37 -7 -12 -9 -12 -10 1 -1 8 -1 19 0 23 1 5 -3 6
-9 2 -6 -3 -8 -10 -5 -14 2 -5 -7 -7 -20 -5 -14 1 -23 -1 -20 -5 2 -4 -2 -8
-10 -8 -18 0 -20 13 -2 21 6 3 2 3 -10 0 -14 -3 -23 -1 -23 6 0 6 6 8 13 4 6
-4 3 3 -8 17 l-20 24 20 -15 c19 -14 19 -14 5 4 -8 11 -10 17 -4 13 7 -4 10 2
8 18 -1 14 1 23 5 20 4 -2 8 2 8 10 0 8 -5 11 -10 8 -6 -4 -7 -1 -3 6 5 7 10
10 14 7 3 -3 11 2 18 12 9 11 13 13 14 4 0 -9 7 -11 20 -7 12 4 20 2 20 -5 0
-6 5 -8 11 -5 6 5 2 13 -11 22 -16 11 -19 18 -11 26 6 6 11 15 11 21 0 5 -6 2
-13 -9 -8 -10 -19 -15 -25 -11 -19 11 -14 24 14 39 l27 14 -23 16 c-13 9 -27
14 -32 11 -4 -3 -5 3 -2 13 6 15 4 15 -10 -2 l-16 -20 7 20 c7 21 5 21 -17 -9
-8 -11 -10 -17 -4 -13 12 7 12 -29 -1 -40 -4 -5 -5 -3 -2 3 3 6 0 11 -8 11
-11 0 -12 -4 -4 -13 6 -7 7 -19 3 -25 -4 -7 -3 -9 4 -5 6 4 9 -3 8 -19 -2 -16
1 -22 8 -18 6 3 7 2 3 -3 -5 -5 -12 -9 -15 -9 -4 0 -13 -4 -21 -9 -11 -7 -12
-6 -6 5 7 11 5 11 -10 -1 -10 -8 -16 -10 -12 -3 5 8 1 11 -13 8 -14 -3 -18 0
-14 8 4 7 4 9 -1 5 -4 -4 -15 -2 -23 5 -9 6 -13 7 -10 2 11 -18 -30 -15 -44 3
-11 13 -11 15 2 7 8 -4 12 -5 8 0 -4 4 -3 14 3 22 9 10 8 18 -5 31 -9 10 -13
22 -9 26 4 4 0 4 -8 1 -9 -3 -22 2 -29 12 -12 15 -12 16 0 6 19 -18 33 -16 26
3 -4 10 -2 13 7 9 6 -4 4 0 -5 7 -15 13 -15 15 5 28 21 12 21 12 7 -6 -14 -18
-14 -18 4 -4 16 12 18 12 11 1 -6 -10 -4 -12 5 -6 9 5 11 4 6 -3 -11 -18 0
-14 15 5 8 9 9 14 4 11 -6 -4 -11 1 -11 11 0 13 9 17 36 16 19 0 42 -4 50 -9
13 -9 13 -8 0 9 -8 10 -10 16 -4 12 7 -4 11 0 10 11 -1 12 6 17 26 17 14 0 30
3 34 8 4 4 0 7 -9 7 -9 0 -17 5 -17 10 0 12 22 9 33 -5 5 -6 6 -2 3 8 -4 13
-2 16 7 11 8 -5 8 -2 -2 9 -7 9 -17 14 -22 11 -5 -3 -9 -1 -9 5 0 5 3 11 8 14
4 2 2 3 -4 1 -6 -1 -17 3 -23 9 -8 8 -14 8 -23 -2 -7 -7 -8 -12 -3 -11 23 5
36 -1 33 -12 -3 -7 -14 -13 -25 -14 -20 -1 -24 19 -8 46 5 8 -7 3 -26 -10 -28
-20 -31 -21 -19 -5 14 19 14 19 -5 5 -19 -14 -19 -14 -5 5 14 19 14 20 -6 2
-11 -9 -24 -14 -29 -10 -4 5 -6 3 -2 -2 3 -7 -8 -11 -28 -11 -18 0 -31 5 -28
10 4 5 1 6 -6 2 -7 -5 -10 -11 -7 -14 3 -3 0 -12 -7 -20 -10 -13 -9 -14 2 -7
16 9 11 -2 -23 -48 -11 -15 -21 -40 -21 -55 0 -21 -5 -26 -20 -24 -47 6 -57
13 -61 37 -1 9 2 12 9 8 7 -4 5 2 -3 13 -22 29 -24 30 -17 12 4 -10 2 -17 -5
-15 -5 1 -12 -6 -13 -16 -2 -11 1 -15 8 -10 7 4 5 -2 -3 -12 -12 -15 -12 -17
-1 -10 11 6 12 5 5 -6 -5 -8 -9 -17 -9 -21 0 -3 -4 -10 -9 -15 -5 -5 -6 -3 -2
4 5 9 2 11 -11 7 -14 -4 -15 -3 -4 4 8 6 9 12 3 16 -9 5 -24 -16 -26 -39 -1
-5 -9 -9 -19 -9 -9 1 -15 -2 -12 -5 7 -12 -29 -9 -45 3 -13 10 -13 9 0 -8 12
-16 12 -18 1 -11 -10 6 -12 4 -6 -5 6 -9 4 -11 -6 -5 -18 12 -49 14 -43 3 3
-5 13 -7 22 -6 10 2 16 -3 14 -10 -1 -9 2 -11 10 -6 8 5 7 1 -2 -11 -12 -15
-12 -17 -1 -10 10 6 12 4 6 -5 -6 -9 -4 -11 6 -5 11 7 11 5 -1 -11 -14 -18
-14 -18 4 -4 18 14 18 14 6 -7 -13 -20 -15 -20 -28 -5 -7 9 -11 11 -7 5 4 -9
1 -11 -9 -7 -19 7 -21 -7 -3 -26 10 -12 9 -12 -6 0 -10 8 -15 20 -12 29 5 13
4 13 -6 4 -10 -10 -9 -17 6 -33 10 -11 15 -23 12 -27 -4 -3 -7 -1 -7 6 0 7 -5
9 -11 6 -6 -5 -4 -12 8 -22 10 -8 12 -12 6 -8 -9 4 -11 1 -6 -11 5 -14 3 -16
-11 -11 -11 4 -15 3 -11 -4 4 -6 14 -8 22 -5 8 3 11 2 8 -4 -3 -5 3 -7 15 -5
26 5 37 -15 16 -30 -15 -11 -15 -13 -1 -19 11 -4 14 -2 10 7 -4 6 1 3 11 -8
14 -17 16 -18 10 -2 -4 12 -2 16 6 11 7 -5 8 -3 3 6 -6 9 -4 11 5 5 9 -6 11
-4 6 4 -5 7 -10 10 -13 7 -3 -3 -15 6 -26 20 -15 20 -17 28 -8 37 9 9 11 8 6
-4 -4 -11 4 -24 25 -39 25 -18 29 -25 19 -36 -16 -20 14 -55 32 -37 8 8 6 11
-7 10 -11 -1 -19 4 -19 13 0 8 8 14 17 14 11 -1 15 3 11 10 -4 7 -1 6 9 -1 8
-7 18 -10 22 -6 4 4 4 -1 0 -12 -8 -21 -6 -21 16 9 8 11 10 17 4 13 -7 -4 -10
2 -8 18 1 16 -2 23 -8 19 -6 -4 -8 -3 -5 3 3 5 0 10 -7 10 -8 0 -12 -6 -9 -13
2 -6 -1 -15 -8 -20 -8 -5 -11 -2 -7 8 4 8 2 21 -4 29 -8 11 -8 9 -4 -6 6 -19
5 -19 -7 -3 -8 10 -17 15 -20 11 -4 -3 1 -12 11 -20 11 -10 12 -12 2 -8 -8 4
-6 -1 4 -9 11 -9 15 -16 8 -16 -14 0 -43 41 -36 52 3 4 0 8 -6 8 -7 0 -9 -7
-5 -17 5 -14 3 -15 -6 -6 -14 14 -2 36 18 29 9 -4 11 -2 7 6 -4 6 -3 8 3 5 5
-3 10 0 10 8 0 8 -5 11 -11 8 -6 -4 -4 2 4 13 14 18 14 18 -4 4 -18 -14 -18
-14 -6 7 13 20 15 20 28 5 7 -9 10 -11 7 -4 -6 11 -3 12 14 3 11 -7 21 -9 21
-5 0 3 6 1 14 -5 8 -7 13 -21 11 -32 -3 -12 0 -17 7 -13 7 5 8 2 2 -7 -17 -27
-11 -35 26 -34 21 0 36 4 33 9 -3 4 7 0 23 -10 21 -15 26 -15 20 -4 -4 8 -1 7
7 -3 10 -12 17 -14 22 -8 3 6 1 11 -6 11 -7 0 -9 3 -6 6 4 4 15 1 24 -7 17
-13 17 -13 3 5 -9 12 -10 17 -3 12 9 -5 11 -2 7 11 -6 16 -4 15 10 -2 10 -11
15 -14 11 -8 -4 9 -1 11 9 7 9 -3 16 -1 16 6 0 6 -4 9 -8 6 -4 -2 -13 -1 -20
3 -8 4 -5 11 9 20 16 9 19 9 14 0 -5 -7 -4 -10 3 -5 6 4 9 -3 8 -17 -2 -19 2
-23 25 -23 15 1 31 5 35 9 5 4 0 5 -11 1 -15 -6 -17 -4 -12 10 5 12 3 15 -6
11 -6 -4 -4 0 6 8 10 9 14 18 8 21 -5 3 -11 0 -14 -6 -3 -7 -4 -3 -4 9 1 12 3
20 6 18 2 -3 11 1 19 8 13 10 14 9 7 -3 -8 -13 -7 -13 10 0 15 12 17 12 10 1
-5 -9 -4 -12 3 -7 13 8 27 -12 27 -39 0 -11 5 -26 9 -34 6 -9 5 -12 -2 -7 -6
4 -9 -3 -8 -19 2 -16 -1 -22 -8 -18 -6 4 -4 -2 4 -13 14 -18 14 -18 -5 -4 -18
14 -19 14 -7 -2 10 -12 10 -18 1 -24 -8 -5 -10 -3 -4 7 4 8 -3 3 -16 -11 -13
-14 -21 -21 -17 -15 4 7 5 15 1 18 -3 4 -1 7 6 7 7 0 9 5 5 11 -4 8 -9 7 -15
-2 -7 -12 -9 -11 -9 0 0 11 -4 9 -15 -5 -15 -19 -15 -19 -9 1 l7 20 -17 -20
-16 -20 7 20 c7 21 5 21 -17 -9 -8 -11 -10 -17 -5 -14 6 4 11 -2 11 -12 0 -18
-11 -20 -35 -6 -9 6 -12 5 -7 -2 4 -6 -3 -9 -19 -8 -14 2 -22 -1 -18 -6 3 -6
-7 -2 -23 8 -21 15 -26 15 -20 4 4 -8 1 -7 -7 3 -10 12 -17 14 -22 8 -3 -6 -1
-11 6 -11 7 0 9 -3 6 -6 -4 -4 -13 -1 -21 5 -13 11 -14 8 -10 -16 3 -23 2 -25
-6 -10 -9 14 -15 15 -32 6 -16 -9 -19 -8 -13 3 5 7 5 10 0 6 -11 -11 -36 12
-28 25 4 6 1 7 -6 3 -7 -5 -20 -1 -31 9 -14 12 -20 13 -26 4 -5 -8 -3 -10 7
-4 8 5 11 5 7 0 -4 -4 -3 -14 3 -22 16 -19 3 -16 -17 5 -17 16 -17 16 -9 -3 4
-11 8 -30 8 -42 -1 -21 8 -28 31 -24 5 1 6 -5 3 -13 -5 -13 37 -63 51 -59 4 0
6 -3 5 -7 -4 -14 48 -51 60 -43 6 4 8 0 4 -10 -4 -10 6 -26 29 -46 40 -36 49
-39 35 -12 -6 10 -7 22 -3 26 4 5 1 5 -7 0 -9 -5 -12 -4 -7 3 3 6 1 14 -5 17
-5 4 -8 14 -5 22 4 9 2 11 -6 7 -7 -4 -8 -3 -4 4 4 7 -1 10 -14 7 -13 -3 -18
0 -14 7 4 7 3 8 -4 4 -7 -4 -10 1 -7 13 2 13 -1 18 -10 15 -7 -3 -16 -1 -20 5
-3 7 0 8 9 5 9 -3 16 -2 16 4 0 5 -13 8 -30 7 -18 -2 -27 1 -23 8 4 6 1 7 -7
2 -9 -6 -11 -4 -5 5 5 7 4 11 -1 7 -5 -3 -9 8 -9 23 -1 20 3 26 10 20 7 -6 16
-5 23 2 7 7 12 8 12 3 0 -6 5 -3 11 5 9 13 10 12 5 -3 -4 -12 -2 -16 7 -11 9
5 9 4 0 -7 -15 -15 -17 -33 -4 -24 5 3 13 0 17 -6 5 -8 3 -9 -6 -4 -9 5 -11 4
-6 -4 4 -6 12 -9 17 -6 5 3 6 -2 3 -12 -6 -16 -4 -15 10 2 10 11 14 13 10 5
-6 -12 -4 -13 7 -2 7 7 14 25 14 40 0 21 5 26 20 24 29 -4 39 -7 52 -15 8 -5
23 2 38 19 20 21 24 23 19 8 -5 -15 -4 -16 5 -4 9 13 11 13 11 0 0 -12 2 -12
9 -2 7 11 9 11 14 -2 3 -8 2 -18 -4 -22 -6 -3 -8 -13 -5 -21 3 -8 1 -11 -4 -8
-6 4 -9 1 -8 -7 2 -7 -3 -12 -10 -10 -8 1 -11 -2 -7 -7 3 -6 -3 -8 -15 -6 -11
2 -23 -1 -26 -7 -4 -7 -2 -8 5 -4 6 4 11 4 10 -1 -1 -4 0 -10 1 -13 1 -3 3
-13 5 -23 3 -15 1 -16 -11 -6 -7 6 -11 16 -7 22 4 6 1 7 -7 2 -9 -6 -11 -4 -5
5 6 9 4 11 -5 5 -9 -5 -11 -4 -6 3 5 8 1 10 -11 6 -14 -4 -15 -3 -4 4 7 5 9
11 5 14 -5 2 -20 -7 -33 -20 -19 -21 -20 -24 -5 -19 17 6 17 6 -1 -9 -20 -16
-20 -17 0 -10 11 4 16 4 12 0 -4 -4 -1 -14 6 -23 11 -14 10 -14 -6 -2 -23 18
-34 6 -14 -16 8 -10 16 -22 15 -26 0 -5 3 -11 6 -14 14 -15 4 23 -11 41 -10
12 -11 15 -3 9 10 -9 17 -10 27 -2 7 7 13 8 13 3 0 -5 5 -2 11 6 9 13 10 13 6
0 -2 -8 -9 -15 -15 -15 -7 0 -12 -3 -12 -7 0 -5 0 -13 0 -20 0 -6 9 -1 20 12
11 13 20 27 20 32 0 5 5 6 10 3 6 -3 15 6 20 21 6 15 13 24 17 20 9 -8 34 14
27 25 -3 5 -1 9 4 9 15 0 62 48 71 73 6 16 6 28 -2 36 -8 8 -8 14 1 23 9 9 15
9 24 0 8 -8 9 -15 3 -20 -13 -9 -17 -32 -6 -32 5 0 14 12 19 28 6 15 11 21 11
13 1 -8 14 1 30 20 16 18 27 38 24 43 -4 5 1 7 10 3 12 -5 24 3 40 28 12 19
30 36 40 39 10 2 16 8 15 13 -2 4 0 8 3 8 15 0 37 28 32 41 -3 10 0 12 10 8
10 -3 18 4 25 23 6 15 11 22 11 14 1 -9 8 -7 21 9 11 12 17 27 13 33 -4 6 0 8
10 4 12 -4 21 2 31 21 9 15 15 23 16 18 0 -5 11 1 24 13 15 14 22 29 19 39 -4
9 -2 13 4 9 6 -4 17 0 24 9 10 12 10 15 -2 12 -8 -2 -13 3 -11 12 2 8 1 12 -3
8 -8 -8 -61 42 -58 54 2 4 -3 7 -10 5 -6 -1 -11 4 -9 11 1 8 -2 11 -7 8 -5 -3
-11 1 -15 9 -3 8 -13 15 -22 15 -10 0 -14 3 -10 7 9 9 -74 93 -92 93 -7 0 -10
5 -7 10 3 6 1 10 -5 10 -6 0 -8 5 -5 10 4 6 3 10 -2 8 -11 -3 -161 151 -154
158 3 3 1 4 -4 2 -6 -1 -30 19 -54 45 -27 29 -50 46 -59 42 -9 -3 -12 0 -9 9
3 8 -2 21 -12 30 -19 18 -46 22 -36 6 4 -6 12 -7 18 -3 7 4 5 -2 -3 -12 -12
-15 -12 -17 -1 -10 10 6 12 4 6 -5 -5 -9 -4 -11 3 -6 7 4 12 2 12 -3 0 -14
-13 -14 -28 1 -8 8 -12 8 -12 1 0 -14 28 -25 43 -17 7 3 4 -1 -6 -9 -11 -9
-14 -18 -8 -21 6 -4 16 2 23 14 7 11 17 20 22 20 4 0 3 -6 -3 -13 -6 -8 -8
-17 -4 -21 4 -3 8 -12 9 -20 2 -14 -33 -16 -55 -2 -10 7 -12 5 -6 -5 5 -8 4
-11 -1 -6 -5 5 -10 17 -10 28 -3 36 -4 38 -24 34 -14 -3 -18 0 -13 8 4 8 2 8
-9 -1 -13 -10 -18 -10 -24 -1 -5 8 -3 10 7 4 8 -5 11 -5 7 0 -4 4 -2 15 5 23
6 9 7 13 1 9 -6 -3 -11 0 -11 8 0 18 13 20 21 3 3 -7 3 -3 0 10 -3 13 -1 22 6
22 6 0 8 -5 4 -12 -5 -7 -3 -8 7 -2 10 5 8 0 -4 -19 -18 -28 -8 -38 13 -12 7
8 9 15 4 15 -4 0 -3 5 4 12 9 9 7 17 -10 35 -12 13 -29 23 -37 23 -11 0 -12 3
-4 8 8 5 3 11 -13 19 -21 10 -26 8 -35 -8z m41 -32 c0 -4 4 -6 9 -3 5 3 17 -2
28 -12 10 -9 13 -13 5 -8 -17 12 -47 -17 -47 -46 0 -15 -7 -22 -22 -23 -13 -1
-21 1 -18 3 7 7 -16 33 -24 28 -13 -8 -30 30 -20 45 7 12 9 12 9 0 0 -8 9 -2
21 13 11 14 26 23 32 19 7 -4 8 0 4 13 -7 18 -7 18 8 0 8 -11 15 -24 15 -29z
m-118 -71 c-5 -6 -7 -21 -6 -34 1 -17 -2 -20 -12 -11 -7 6 -19 7 -26 3 -7 -4
-3 4 10 18 12 13 20 27 17 30 -3 2 2 5 10 5 9 0 11 -5 7 -11z m174 -80 c0 -12
-5 -23 -11 -23 -6 0 -11 13 -10 27 0 15 5 26 10 23 6 -2 11 -14 11 -27z m115
7 c13 -14 19 -23 13 -20 -6 4 -18 -1 -27 -11 -15 -17 -17 -21 -17 -42 0 -5 -4
-10 -8 -10 -4 0 -8 11 -8 24 0 14 4 24 9 23 13 -3 18 31 6 39 -8 4 -4 24 5 24
1 0 13 -12 27 -27z m191 -198 c5 -11 -4 -3 -22 18 -17 20 -36 34 -42 31 -6 -4
-8 -2 -4 4 10 17 -10 23 -24 7 -9 -11 -10 -18 -1 -29 9 -10 8 -16 -4 -26 -20
-17 -32 -5 -15 15 11 13 8 15 -16 13 -16 -1 -33 -4 -39 -7 -15 -8 -38 -10 -30
-3 4 4 12 7 18 7 7 0 12 8 12 17 0 9 13 26 28 38 15 12 24 27 21 33 -4 7 19
-13 50 -43 32 -30 62 -64 68 -75z m122 -114 c9 -7 14 -17 11 -21 -5 -8 18 -32
26 -27 2 1 3 0 2 -2 -1 -2 11 -14 28 -28 16 -14 27 -28 24 -32 -7 -13 -51 -7
-70 9 -15 13 -19 12 -34 -5 -9 -11 -22 -21 -28 -22 -17 -4 -9 28 10 39 10 5
15 13 12 17 -2 5 2 14 10 21 8 7 12 16 9 22 -3 5 -12 4 -20 -3 -12 -10 -15
-10 -12 1 2 9 -6 14 -21 15 -29 0 -40 22 -14 27 29 6 50 3 67 -11z m-327 -39
c18 15 29 2 13 -17 -11 -13 -8 -15 16 -13 16 1 34 4 39 7 15 8 38 10 30 3 -4
-4 -12 -7 -18 -7 -7 0 -11 -8 -11 -17 1 -9 -4 -14 -11 -12 -7 3 -20 -5 -28
-17 -12 -16 -27 -23 -57 -24 -43 -2 -62 11 -39 26 10 6 10 9 2 9 -7 0 -18 -10
-24 -22 -6 -13 -8 -20 -4 -16 8 7 35 -15 35 -28 0 -5 -5 -3 -12 4 -8 8 -15 9
-25 1 -7 -7 -13 -8 -13 -3 0 5 -4 2 -9 -5 -6 -9 -6 -23 0 -35 10 -20 10 -20
-5 -2 -9 11 -14 30 -12 43 3 13 1 21 -5 18 -5 -4 -7 -11 -4 -16 4 -5 1 -9 -6
-9 -10 0 -10 -3 -1 -12 18 -18 15 -31 -5 -24 -10 3 -6 -3 9 -14 14 -11 37 -29
50 -40 l23 -20 -21 -18 -22 -19 22 -14 c11 -8 31 -14 43 -14 13 0 23 -4 23
-10 0 -5 -6 -10 -12 -10 -9 0 -13 -15 -12 -44 1 -26 -2 -38 -7 -30 -4 7 -6 16
-3 20 2 4 -3 12 -10 18 -10 8 -16 9 -21 1 -3 -6 -11 -8 -16 -5 -5 4 -9 2 -9
-3 0 -4 -9 -17 -19 -29 -20 -21 -68 -26 -64 -6 1 6 -4 14 -12 17 -9 3 -12 0
-8 -10 3 -7 1 -14 -3 -15 -5 0 -17 -2 -26 -4 -21 -4 -33 11 -18 20 8 5 7 11
-1 21 -6 8 -8 14 -4 14 5 0 0 9 -10 20 -10 11 -22 17 -26 14 -5 -3 -9 -1 -9 4
0 5 -6 9 -12 9 -7 0 -17 2 -23 3 -20 5 -36 0 -30 -9 3 -5 1 -13 -5 -16 -8 -5
-7 -11 1 -21 8 -10 8 -14 0 -14 -6 0 -13 1 -14 3 -10 6 -37 -28 -33 -40 3 -8
1 -11 -4 -8 -10 6 -6 52 4 63 3 3 12 -1 21 -8 10 -8 15 -9 15 -1 0 6 -4 11 -8
11 -5 0 -17 7 -28 16 -19 15 -19 15 2 5 12 -6 26 -6 35 0 7 5 10 9 5 9 -5 0
-3 6 3 14 8 10 8 16 -3 25 -14 11 -16 35 -4 46 3 3 15 8 28 10 28 5 51 24 44
36 -3 5 2 6 10 3 9 -3 16 -10 16 -16 0 -5 -5 -6 -12 -2 -7 4 -8 3 -4 -4 4 -6
13 -9 21 -6 8 4 13 10 10 14 -3 5 -1 11 5 15 6 4 8 10 5 15 -3 5 -1 11 5 15 6
4 7 12 3 18 -3 7 3 4 14 -6 11 -9 23 -14 26 -10 4 3 7 2 7 -4 0 -12 31 -13 46
-2 6 5 10 19 9 32 -1 12 10 37 23 55 13 18 25 41 26 50 2 12 12 17 34 17 17 0
34 3 38 8 4 4 12 3 18 -3 6 -6 14 -6 23 2z m187 -77 c-9 -14 -20 -23 -24 -20
-5 3 -11 1 -15 -5 -3 -5 -12 -10 -18 -10 -7 0 -6 4 3 10 10 6 11 10 3 10 -7 0
-13 4 -13 9 0 6 9 8 19 6 11 -2 27 3 38 10 25 20 26 19 7 -10z m286 -41 c8 -8
9 -14 4 -13 -26 5 -36 -1 -25 -14 8 -11 6 -18 -10 -33 -12 -10 -22 -17 -23
-14 -1 3 -10 -2 -19 -11 -9 -9 -14 -19 -11 -22 3 -3 -3 -4 -13 -3 -10 0 -17
-5 -15 -12 1 -8 -2 -11 -9 -6 -9 5 -5 13 12 27 13 10 24 24 24 31 1 6 6 10 12
9 6 -1 19 7 28 17 10 11 15 20 11 20 -4 0 -2 9 4 20 13 24 14 24 30 4z m-337
-73 c4 -1 7 -6 7 -13 0 -6 -3 -8 -7 -5 -3 4 -13 -3 -21 -15 -14 -19 -14 -23 6
-39 12 -9 22 -21 22 -25 0 -4 -5 -3 -12 4 -9 9 -15 9 -26 0 -10 -9 -15 -9 -21
1 -12 18 -7 56 6 54 15 -3 25 25 11 33 -7 4 -8 3 -4 -4 4 -7 2 -12 -3 -12 -12
0 -15 13 -5 22 3 3 13 5 22 3 9 -2 20 -4 25 -4z m127 -51 c0 -5 -4 -10 -10
-10 -5 0 -10 5 -10 10 0 6 5 10 10 10 6 0 10 -4 10 -10z m15 -82 c-1 -13 -6
-23 -11 -23 -18 0 -34 -17 -28 -27 4 -7 2 -8 -4 -4 -6 4 -18 -5 -28 -19 -14
-22 -34 -26 -34 -6 0 13 62 71 71 66 4 -3 13 4 19 15 14 26 17 25 15 -2z
m-210 -16 c-2 -9 -4 -20 -4 -24 -1 -5 -6 -8 -13 -8 -6 0 -8 3 -5 7 4 3 -1 15
-10 26 -10 11 -13 17 -6 14 6 -4 14 -3 18 3 9 15 24 3 20 -18z m-365 -100 c0
-13 -12 -22 -22 -16 -10 6 -1 24 13 24 5 0 9 -4 9 -8z m369 -6 c12 -14 35 -16
47 -3 4 4 12 7 18 7 6 0 4 -5 -4 -10 -11 -7 -11 -10 -2 -10 8 0 5 -8 -8 -22
-23 -25 -39 -29 -58 -14 -19 13 -51 -19 -35 -35 16 -16 -6 -59 -44 -89 -16
-12 -28 -26 -28 -31 0 -5 -4 -9 -10 -10 -5 0 -16 -5 -22 -11 -7 -6 -13 -8 -13
-4 0 3 0 9 0 14 0 4 3 7 8 7 16 0 62 43 50 47 -7 3 -8 9 -3 19 5 8 10 20 11
27 2 11 -2 13 -21 12 -3 -1 -13 6 -21 15 -15 15 -10 40 6 30 5 -3 11 -1 15 5
4 6 11 8 16 4 6 -4 6 -11 -2 -20 -24 -29 1 -26 40 5 31 25 39 37 35 56 -5 28
7 33 25 11z m-382 -119 c4 -7 0 -7 -10 2 -9 7 -18 10 -18 5 -6 -37 -2 -62 10
-79 15 -19 15 -19 -4 -2 -11 10 -20 25 -20 35 0 9 -6 17 -14 17 -8 0 -15 10
-16 22 -1 12 1 22 4 21 19 -2 22 4 10 19 -9 12 -3 10 18 -5 18 -13 36 -28 40
-35z m140 9 c5 -5 3 -6 -5 -2 -19 11 -41 -11 -38 -38 3 -25 -15 -29 -36 -8 -8
8 -8 15 1 26 7 8 10 19 8 23 -7 11 59 10 70 -1z m76 -2 c-6 -17 -31 -25 -38
-13 -4 5 -11 7 -16 4 -5 -4 -9 -2 -9 4 0 11 15 17 45 17 14 0 21 -5 18 -12z
m-174 -123 c-6 -1 -2 -10 8 -18 16 -14 15 -14 -7 0 -14 8 -25 18 -25 23 0 5
-4 15 -9 23 -6 8 1 6 16 -5 15 -10 22 -21 17 -23z m135 -4 c15 -13 21 -24 14
-24 -7 0 -19 -2 -27 -4 -9 -3 -15 5 -16 24 -1 15 -1 27 0 27 1 0 14 -10 29
-23z m-70 -66 c-2 -2 1 -11 8 -20 7 -9 1 -6 -12 6 -13 12 -24 32 -25 44 -2 21
-2 21 16 -2 10 -13 16 -26 13 -28z"/>
<path d="M7013 7923 c-8 -12 -20 -20 -27 -17 -16 8 35 -34 56 -46 13 -8 16 -6
13 8 -1 9 7 27 18 39 l20 22 -22 -4 c-16 -3 -21 0 -18 9 9 22 -24 14 -40 -11z
m21 2 c-4 -10 0 -13 16 -10 22 4 22 4 5 -15 -10 -11 -14 -20 -10 -20 5 0 6 -3
2 -6 -3 -4 -13 1 -22 10 -12 12 -14 20 -5 36 12 23 22 27 14 5z"/>
<path d="M7026 7898 c3 -5 10 -6 15 -3 13 9 11 12 -6 12 -8 0 -12 -4 -9 -9z"/>
<path d="M7219 7797 c6 -8 7 -18 3 -22 -4 -5 -1 -5 6 -1 10 6 10 11 1 22 -6 8
-14 14 -16 14 -3 0 0 -6 6 -13z"/>
<path d="M7299 7676 c-21 -18 -23 -24 -12 -34 9 -9 13 -9 13 -2 0 6 4 9 9 6 4
-3 16 3 25 13 13 14 14 20 4 29 -10 7 -20 4 -39 -12z m32 -9 c-6 -6 -18 -12
-27 -13 -14 -2 -14 0 1 17 10 10 22 16 27 13 6 -4 6 -10 -1 -17z"/>
<path d="M7525 7480 c-3 -5 -5 -10 -3 -11 33 -8 38 -7 27 7 -14 17 -16 17 -24
4z"/>
<path d="M7550 7425 c-7 -8 -9 -15 -4 -15 5 -1 -2 -10 -15 -20 -13 -11 -19
-20 -14 -20 6 0 18 9 28 20 17 18 19 19 30 3 10 -14 65 -28 65 -17 0 1 -17 16
-39 33 -34 27 -40 29 -51 16z m53 -29 c3 3 8 1 11 -4 3 -6 -1 -9 -10 -8 -9 1
-21 10 -26 19 -5 10 -14 14 -20 11 -7 -5 -8 -2 -3 6 6 10 12 8 25 -8 10 -12
20 -19 23 -16z"/>
<path d="M7186 7432 c-3 -5 -19 -8 -35 -7 -24 2 -29 -1 -26 -16 2 -11 0 -19
-5 -19 -5 0 -19 -15 -31 -32 -16 -22 -17 -28 -6 -19 15 12 21 9 19 -10 -1 -3
6 -6 14 -6 8 0 14 4 14 9 0 4 -6 8 -12 8 -9 0 -8 4 2 10 8 5 11 10 5 10 -5 0
1 7 13 16 25 17 49 10 33 -10 -8 -9 -2 -12 24 -11 33 1 75 28 75 49 0 6 -4 5
-9 -2 -10 -17 -22 -17 -32 -1 -4 8 -3 20 4 29 10 13 10 13 -4 3 -11 -9 -19 -9
-26 -2 -7 7 -13 7 -17 1z m58 -44 c7 2 6 -2 -2 -9 -17 -18 -62 -20 -55 -2 3 7
9 13 14 13 5 0 9 5 9 10 0 12 -22 9 -32 -5 -5 -6 -8 -4 -8 4 0 11 -4 10 -19
-3 -19 -17 -19 -17 -17 1 2 11 11 18 24 18 11 0 24 4 29 8 4 5 16 -2 27 -15
10 -13 24 -22 30 -20z m-131 -23 c-3 -9 -8 -14 -10 -11 -3 3 -2 9 2 15 9 16
15 13 8 -4z"/>
<path d="M7206 7382 c-3 -5 1 -9 9 -9 8 0 12 4 9 9 -3 4 -7 8 -9 8 -2 0 -6 -4
-9 -8z"/>
<path d="M6969 7286 c-2 -10 -6 -25 -9 -33 -1 -5 -2 -11 -2 -15 1 -3 -5 -12
-14 -19 -11 -9 -18 -9 -26 -1 -8 8 -17 6 -34 -4 -13 -9 -25 -15 -28 -15 -23 3
-29 0 -16 -9 12 -8 12 -10 1 -10 -9 0 -6 -7 9 -20 13 -11 26 -20 29 -21 31 -4
47 -11 67 -30 13 -12 21 -25 19 -30 -3 -4 -1 -11 5 -14 8 -5 8 -11 0 -20 -9
-10 -7 -13 7 -11 10 2 18 9 18 17 0 8 6 15 13 15 6 1 19 2 27 3 8 0 15 6 15
11 0 6 -6 9 -12 8 -7 -2 -12 3 -10 10 1 6 -2 12 -6 12 -16 0 -22 -13 -12 -25
7 -8 5 -12 -5 -12 -8 0 -11 5 -8 10 3 6 1 7 -5 3 -7 -4 -10 1 -7 14 3 14 0 18
-8 13 -7 -4 -6 0 2 10 7 9 19 17 25 17 6 0 5 -4 -3 -9 -7 -5 -9 -10 -5 -13 5
-2 20 7 33 20 19 21 20 24 5 19 -17 -6 -17 -6 1 9 17 14 17 16 2 10 -12 -4
-16 -2 -11 6 5 7 3 8 -7 2 -14 -9 -19 -10 -40 -13 -5 0 -8 -5 -4 -10 3 -5 0
-13 -6 -17 -7 -4 -9 -3 -5 4 4 7 -1 10 -14 7 -11 -2 -20 1 -20 6 0 6 -4 8 -9
5 -5 -3 -15 2 -22 11 -8 10 -9 14 -2 10 6 -4 14 -3 18 3 4 6 11 8 16 4 5 -3 7
-10 4 -15 -4 -5 -2 -9 3 -9 17 0 22 13 9 28 -10 13 -9 14 2 7 10 -6 12 -4 6 6
-5 8 0 7 12 -3 24 -22 40 -24 23 -3 -7 8 -9 15 -4 15 5 0 3 4 -5 9 -9 6 -10
11 -2 15 6 4 11 3 11 -2 0 -5 7 -9 16 -9 14 0 14 2 -2 14 -10 7 -13 13 -7 13
7 0 14 -4 18 -10 3 -5 13 -7 23 -4 14 5 15 4 2 -5 -9 -7 -10 -11 -3 -11 6 0
15 5 18 11 12 18 31 -21 30 -57 -1 -20 2 -31 8 -27 6 3 7 1 3 -6 -6 -8 -12 -9
-20 -2 -13 11 -26 5 -26 -11 0 -5 4 -7 9 -3 5 3 13 0 16 -5 5 -7 11 -5 19 6
12 16 13 16 19 0 5 -12 3 -15 -6 -11 -6 4 -4 0 6 -8 16 -13 16 -15 2 -21 -11
-4 -14 -2 -9 6 4 6 3 8 -4 4 -6 -3 -14 -2 -17 4 -5 8 -11 7 -21 -1 -7 -6 -11
-16 -7 -22 3 -5 -2 -16 -12 -24 -14 -9 -15 -13 -4 -13 12 0 12 -2 -1 -10 -11
-7 -10 -9 9 -7 12 1 32 14 43 30 11 15 23 26 26 23 3 -3 11 2 18 12 8 10 13
12 14 5 0 -7 5 -13 12 -13 6 0 8 3 5 7 -4 3 -1 13 6 22 10 13 10 14 -3 6 -11
-8 -22 -4 -43 17 -28 26 -28 27 -8 38 12 6 21 14 21 19 0 16 -82 65 -110 66
-16 1 -36 7 -44 14 -9 8 -17 11 -17 7z m15 -15 c3 -5 -2 -15 -12 -22 -15 -12
-16 -12 -5 2 7 9 10 19 6 22 -3 4 -4 7 0 7 3 0 8 -4 11 -9z m146 -71 c0 -3 -8
-10 -19 -17 -16 -10 -18 -8 -17 10 1 12 -3 29 -8 37 -6 8 1 6 16 -5 15 -11 28
-22 28 -25z m-219 3 c-1 -4 -5 -9 -11 -9 -5 -1 -15 -2 -21 -3 -14 -1 35 -42
54 -45 6 -1 17 -5 24 -9 6 -4 17 0 25 10 16 22 35 26 35 8 0 -8 -4 -12 -9 -9
-5 3 -18 -2 -29 -12 -15 -14 -17 -20 -7 -33 7 -9 -1 -4 -18 12 -17 15 -41 30
-54 32 -13 2 -28 9 -34 15 -12 12 -18 42 -7 35 5 -2 17 2 27 10 19 14 26 13
25 -2z m227 -88 c-3 -3 -9 2 -12 12 -6 14 -5 15 5 6 7 -7 10 -15 7 -18z m-54
-42 c-10 -7 -14 -13 -10 -13 4 0 4 -5 1 -10 -4 -6 -11 -8 -16 -4 -6 4 -6 10 1
19 6 7 10 17 9 21 -4 21 2 26 17 13 14 -12 14 -14 -2 -26z"/>
<path d="M6860 7176 c0 -3 9 -10 20 -16 11 -6 20 -8 20 -6 0 3 -9 10 -20 16
-11 6 -20 8 -20 6z"/>
<path d="M6994 7219 c-2 -4 0 -10 6 -14 6 -4 7 -12 4 -18 -5 -9 -4 -9 6 0 14
13 55 -1 46 -16 -3 -4 1 -8 8 -8 7 0 12 12 11 31 -1 29 -4 31 -39 31 -21 1
-39 -2 -42 -6z m65 -25 c15 -15 14 -15 -10 0 -14 9 -28 14 -31 10 -3 -3 -9 -1
-12 5 -10 16 36 3 53 -15z"/>
<path d="M6963 7193 c4 -3 1 -13 -6 -22 -11 -14 -10 -14 5 -2 16 12 16 31 1
31 -4 0 -3 -3 0 -7z"/>
<path d="M7026 7131 c-4 -5 -2 -12 4 -16 6 -4 7 -12 3 -18 -3 -7 3 -3 15 7 12
11 22 21 22 24 0 3 -3 2 -7 -1 -3 -4 -12 -2 -19 4 -8 6 -14 6 -18 0z"/>
<path d="M7659 7273 c-13 -16 -12 -17 4 -4 9 7 17 15 17 17 0 8 -8 3 -21 -13z"/>
<path d="M7314 7190 c1 -14 6 -24 9 -22 11 4 11 6 -1 27 -11 19 -12 18 -8 -5z"/>
<path d="M7435 7070 c-16 -16 -27 -31 -24 -33 2 -2 17 11 32 30 36 41 31 43
-8 3z"/>
<path d="M7275 7111 c-3 -5 -2 -12 3 -15 5 -3 9 1 9 9 0 17 -3 19 -12 6z"/>
<path d="M7285 6980 c2 -13 7 -25 10 -28 13 -13 36 -9 45 8 8 15 6 18 -8 15
-9 -1 -25 4 -34 12 -16 14 -17 13 -13 -7z m23 -25 c-3 -3 -9 2 -12 12 -6 14
-5 15 5 6 7 -7 10 -15 7 -18z"/>
<path d="M7185 6930 c-4 -6 -11 -7 -17 -4 -7 4 -8 2 -4 -5 6 -9 11 -9 22 0 14
11 18 19 10 19 -3 0 -8 -5 -11 -10z"/>
<path d="M7223 6908 c-6 -7 -9 -21 -8 -30 2 -10 -1 -20 -6 -24 -5 -3 -7 -10
-3 -15 4 -6 11 -6 20 2 7 6 11 15 8 20 -3 5 -1 9 4 9 16 0 22 28 8 39 -10 8
-16 8 -23 -1z m21 -7 c3 -5 -1 -14 -8 -20 -12 -10 -14 -9 -11 6 2 10 4 19 4
21 2 5 10 2 15 -7z"/>
<path d="M6861 6882 c-7 -14 -6 -19 4 -19 8 0 11 5 8 10 -3 5 1 13 8 18 10 6
10 9 2 9 -7 0 -17 -8 -22 -18z"/>
<path d="M7003 6878 c-20 -26 -23 -37 -12 -44 8 -4 9 -3 5 4 -4 7 -2 12 5 12
7 0 9 3 6 7 -4 3 -2 12 4 20 6 7 9 13 6 13 -2 0 -9 -6 -14 -12z"/>
<path d="M7096 6878 c3 -5 10 -6 15 -3 13 9 11 12 -6 12 -8 0 -12 -4 -9 -9z"/>
<path d="M7073 6745 c0 -8 4 -12 9 -9 5 3 6 10 3 15 -9 13 -12 11 -12 -6z"/>
<path d="M7120 7855 c-7 -9 -11 -17 -9 -20 3 -2 10 5 17 15 14 24 10 26 -8 5z"/>
<path d="M6994 7843 c3 -6 2 -14 -4 -18 -6 -4 -8 -11 -4 -16 8 -13 -23 -48
-41 -45 -7 1 -20 8 -28 15 -9 7 -22 14 -29 15 -7 1 -18 5 -25 9 -6 4 -14 3
-18 -3 -3 -5 -4 -10 -1 -10 3 0 -2 -9 -11 -19 -9 -11 -20 -18 -25 -15 -5 3 -7
0 -6 -7 2 -7 -2 -13 -9 -14 -7 0 -22 -14 -35 -31 -22 -29 -28 -34 -45 -34 -4
0 -2 -5 5 -12 17 -17 15 -33 -2 -19 -10 8 -16 8 -25 -2 -6 -8 -7 -18 -3 -22 4
-5 -1 -5 -10 -2 -12 4 -23 -4 -38 -29 -12 -19 -26 -32 -31 -28 -5 3 -8 0 -7
-7 2 -7 -3 -13 -9 -14 -14 0 -16 -7 -7 -30 5 -12 9 -13 21 -4 7 7 12 18 9 25
-3 8 -2 13 2 13 4 -1 14 -1 22 0 13 1 13 2 0 11 -13 9 -13 10 0 11 8 1 19 1
23 0 5 -1 5 4 1 10 -4 8 -3 9 5 5 6 -4 9 -12 6 -17 -4 -5 -1 -9 4 -9 16 0 14
11 -6 32 -9 10 -14 20 -12 22 2 2 17 -14 33 -37 17 -22 24 -37 16 -32 -9 5
-11 4 -6 -4 4 -6 12 -9 17 -6 5 4 9 1 9 -4 0 -6 -5 -11 -11 -11 -5 0 -7 -5 -3
-11 5 -8 9 -8 14 1 5 9 9 9 14 1 4 -6 3 -11 -2 -11 -5 0 -9 -7 -9 -16 0 -15 1
-15 12 0 7 8 15 13 18 9 4 -3 -2 -13 -13 -20 -11 -8 -18 -18 -15 -23 3 -5 0
-12 -6 -16 -7 -4 -9 -3 -6 3 4 6 0 16 -8 23 -8 7 -13 16 -10 20 3 5 1 11 -5
15 -5 3 -10 -1 -10 -9 0 -9 -4 -16 -10 -16 -12 0 -9 22 5 33 6 4 -1 5 -15 3
-14 -2 -24 -9 -22 -15 1 -6 -3 -11 -9 -11 -6 0 -8 8 -5 18 5 15 4 14 -9 -2 -8
-10 -12 -23 -8 -29 4 -6 1 -7 -7 -2 -9 5 -11 4 -6 -4 6 -9 11 -9 22 0 24 20
42 -6 21 -29 -20 -21 -22 -32 -6 -32 5 0 8 4 4 9 -3 5 0 13 6 17 7 4 9 3 5 -4
-4 -7 1 -10 14 -7 22 4 28 -10 8 -19 -7 -3 -2 -3 10 0 21 5 23 3 18 -18 -6
-20 -5 -20 4 -5 6 9 16 14 22 11 7 -5 8 -2 3 6 -5 8 -4 11 2 7 5 -3 9 8 8 29
-2 40 12 55 30 30 11 -15 13 -15 19 -1 4 11 2 14 -7 10 -6 -4 -3 1 8 11 20 16
20 17 0 10 -11 -4 -16 -4 -12 0 4 4 0 16 -10 26 -15 17 -15 19 1 37 13 14 14
21 5 27 -7 4 -10 3 -6 -3 3 -5 0 -10 -8 -10 -18 0 -20 13 -2 21 6 3 1 3 -12 0
-19 -5 -23 -3 -18 9 3 8 0 20 -6 27 -9 10 -9 11 2 5 10 -6 12 -4 6 5 -5 9 -4
11 3 6 8 -5 10 -1 6 11 -4 14 -3 15 4 4 7 -9 12 -10 16 -2 4 6 2 11 -3 11 -8
0 -7 6 1 19 11 18 13 18 25 3 12 -16 14 -16 28 2 10 13 15 15 15 6 0 -7 3 -10
6 -7 4 4 1 14 -7 24 -12 14 -12 16 0 8 9 -5 12 -4 8 2 -3 5 0 10 8 10 8 0 11
-5 8 -11 -4 -6 1 -5 10 3 14 11 20 11 35 1 9 -7 -1 4 -23 25 -22 20 -31 31
-20 24 19 -13 19 -13 5 5 -12 16 -12 18 -1 11 10 -6 12 -4 6 4 -6 10 -3 11 12
2 11 -6 24 -7 29 -3 5 4 3 0 -4 -9 -10 -13 -9 -19 5 -30 14 -12 16 -12 8 0 -6
10 -4 12 5 6 8 -5 11 -4 7 1 -3 6 5 10 18 10 13 0 21 -4 18 -10 -3 -5 -1 -6 6
-2 6 4 9 12 6 17 -4 5 -1 9 4 9 15 0 14 -13 -1 -29 -10 -11 -10 -12 -1 -7 9 5
11 1 7 -11 -3 -10 -2 -14 3 -8 11 14 33 17 33 5 0 -5 -7 -10 -16 -10 -8 0 -13
-4 -9 -9 3 -6 15 -8 27 -6 12 3 27 0 34 -6 8 -7 14 -6 20 2 5 8 3 9 -6 4 -9
-5 -11 -4 -6 4 6 9 11 9 22 0 7 -6 12 -15 9 -19 -3 -5 -1 -11 4 -15 6 -3 9
-11 7 -18 -1 -7 -1 -9 1 -4 8 12 20 8 20 -8 0 -8 -5 -11 -10 -8 -6 3 -7 1 -4
-5 8 -12 32 -10 44 3 4 4 2 5 -6 0 -10 -5 -12 -4 -7 4 4 6 12 9 17 6 5 -4 9
-1 9 5 0 7 -7 9 -16 6 -8 -3 -12 -2 -9 3 3 6 14 9 25 8 10 -1 16 -5 13 -11 -4
-5 0 -6 8 -2 8 4 5 0 -5 -8 -18 -15 -15 -21 8 -17 5 1 4 -5 -4 -13 -11 -15 -7
-20 13 -17 4 0 7 -4 7 -10 0 -6 -8 -8 -17 -5 -15 5 -15 4 1 -9 16 -12 22 -12
28 -2 6 9 8 9 8 -1 0 -7 4 -11 9 -7 5 3 13 0 17 -6 5 -8 3 -9 -7 -4 -8 5 -11
5 -7 0 4 -4 3 -16 -2 -26 -7 -12 -18 -16 -37 -13 -22 4 -24 3 -14 -10 11 -13
9 -14 -14 -10 -21 4 -26 1 -22 -9 3 -7 -1 -14 -8 -14 -10 0 -11 5 -5 17 15 27
-1 32 -23 7 -11 -12 -18 -15 -15 -7 3 9 0 24 -8 35 -10 14 -14 15 -14 4 0 -12
-2 -12 -11 1 -9 13 -10 12 -5 -3 3 -10 2 -16 -2 -13 -4 2 -9 -5 -9 -17 -1 -12
1 -17 5 -12 10 14 32 17 32 5 0 -6 -7 -10 -16 -10 -8 0 -12 -5 -9 -10 4 -6 10
-8 14 -6 4 3 8 -1 8 -9 0 -10 -4 -12 -12 -5 -9 7 -14 6 -18 -4 -4 -9 -2 -18 3
-21 6 -4 10 -1 10 4 0 6 5 10 12 9 7 -2 12 2 13 7 1 21 17 36 28 27 14 -10 27
-10 45 1 6 5 12 5 12 1 0 -4 9 1 21 12 17 15 22 16 29 4 7 -12 12 -12 21 -3 9
9 17 9 33 0 12 -6 28 -11 36 -12 8 0 15 -5 15 -12 0 -7 5 -17 12 -24 9 -9 9
-17 1 -33 -10 -18 -9 -19 4 -9 8 7 19 9 23 5 5 -4 5 -2 2 4 -4 7 0 15 8 18 8
3 14 11 13 17 -4 14 30 21 38 8 3 -5 10 -7 15 -3 6 4 6 10 -1 18 -7 10 -4 21
11 40 12 15 19 30 15 33 -3 4 -6 1 -6 -5 0 -11 -54 34 -56 46 -2 20 -17 39
-29 39 -8 0 -12 -4 -9 -8 2 -4 -5 -13 -16 -19 -11 -6 -18 -15 -15 -20 3 -4 0
-10 -7 -12 -9 -3 -9 -6 0 -12 14 -8 55 31 47 44 -3 6 1 7 10 3 11 -4 13 -8 5
-13 -6 -4 -10 -13 -8 -21 2 -8 -3 -13 -9 -11 -14 2 -17 -10 -6 -21 3 -4 12 1
20 11 10 13 13 14 11 2 -2 -8 -10 -21 -18 -28 -13 -11 -11 -11 9 -2 19 10 22
10 15 -2 -6 -9 -3 -9 11 2 15 12 17 12 10 1 -6 -10 -4 -12 5 -6 9 5 11 4 6 -4
-4 -6 -12 -9 -17 -6 -12 8 -12 -8 1 -21 7 -7 6 -11 -4 -11 -8 0 -12 5 -9 10 3
6 1 7 -5 3 -8 -5 -10 -2 -6 8 7 17 -11 22 -21 6 -4 -7 -12 -7 -25 0 -13 7 -20
6 -23 -3 -4 -9 -6 -9 -6 1 -1 7 -5 11 -10 7 -5 -3 -13 0 -17 6 -4 7 -3 9 3 6
5 -3 10 -1 11 6 0 7 3 24 6 40 6 26 -6 37 -19 17 -4 -7 -14 -6 -28 2 -12 7
-29 12 -37 13 -8 0 -14 5 -13 12 1 6 -4 16 -12 23 -11 9 -12 17 -5 30 8 15 5
23 -13 37 -13 10 -23 26 -21 36 3 25 -28 41 -51 27 -15 -9 -40 -6 -40 5 -1 6
-6 20 -13 31 -6 12 -9 24 -6 26 2 3 -2 11 -11 18 -12 10 -18 10 -30 0 -8 -7
-16 -10 -16 -6 -1 3 -2 10 -3 15 0 5 -5 13 -10 18 -5 4 -6 3 -2 -4z m32 -32
c7 6 17 8 23 5 13 -8 7 -36 -9 -46 -8 -5 -11 -12 -7 -16 3 -4 13 -1 22 6 14
11 19 7 16 -13 -1 -4 5 -15 14 -23 12 -12 15 -12 16 -2 0 10 2 10 6 1 6 -16
24 -17 21 -2 -4 15 30 20 39 6 3 -7 3 -9 -2 -5 -10 9 -35 -10 -35 -25 0 -7 4
-7 12 1 7 7 17 12 23 12 5 0 2 -5 -7 -11 -10 -5 -18 -15 -18 -22 0 -8 4 -6 11
3 8 11 12 12 16 2 2 -6 8 -10 13 -7 4 3 14 -3 21 -12 12 -15 12 -16 -1 -8 -22
14 -48 16 -55 5 -8 -12 -35 -1 -35 15 0 16 -35 47 -44 38 -13 -14 -43 -9 -42
6 1 9 -5 16 -11 17 -7 1 -15 2 -18 3 -3 0 -1 10 5 21 8 15 8 20 -2 21 -11 0
-11 2 0 6 10 4 10 8 0 21 -10 14 -10 15 2 5 10 -9 17 -9 26 -2z m-171 -71 c17
-19 17 -19 -4 -15 -20 4 -34 -8 -37 -33 -4 -24 -15 -27 -26 -8 -10 17 -12 17
-33 -9 -15 -20 -24 -25 -29 -16 -4 6 -3 10 3 9 5 -2 21 12 35 31 14 19 26 30
26 23 0 -7 5 -12 12 -12 6 0 8 3 5 7 -6 5 19 43 28 43 1 0 10 -9 20 -20z
m-147 -113 c-1 -2 3 -11 10 -20 9 -11 10 -17 2 -22 -13 -8 29 -42 44 -37 5 2
4 -4 -4 -13 -11 -13 -10 -19 5 -35 10 -11 15 -20 12 -20 -12 0 -96 118 -89
125 4 3 8 11 8 16 3 20 4 22 10 17 3 -4 4 -8 2 -11z m506 -25 c3 -5 -1 -9 -9
-9 -8 0 -12 4 -9 9 3 4 7 8 9 8 2 0 6 -4 9 -8z m160 -37 c-4 -8 -11 -12 -16
-9 -6 4 -5 10 3 15 19 12 19 11 13 -6z m-68 -14 c10 8 12 6 9 -11 -2 -12 -9
-28 -14 -34 -7 -9 -7 -17 2 -26 6 -7 0 -5 -15 4 -17 12 -28 14 -33 6 -3 -6
-11 -8 -16 -4 -5 3 -1 18 10 33 16 22 18 31 8 41 -7 7 -1 6 12 -3 18 -12 28
-13 37 -6z m148 -39 c4 -8 1 -10 -7 -5 -6 4 -16 8 -22 8 -5 0 -10 5 -10 10 0
6 -4 16 -9 24 -6 9 1 7 17 -5 14 -10 29 -25 31 -32z m-844 12 c0 -8 -19 -13
-24 -6 -3 5 1 9 9 9 8 0 15 -2 15 -3z m484 -22 c3 -5 -1 -9 -9 -9 -8 0 -12 4
-9 9 3 4 7 8 9 8 2 0 6 -4 9 -8z m-429 -35 c0 -7 8 -12 17 -12 19 0 33 -12 33
-28 1 -7 6 -11 13 -10 6 2 9 -4 6 -12 -7 -18 -16 -19 -32 -2 -7 6 -18 12 -25
12 -7 0 -12 7 -13 15 -1 8 -2 17 -3 20 -7 14 -9 41 -3 35 4 -4 7 -12 7 -18z
m730 -4 c-2 -10 -4 -20 -5 -23 -1 -3 -2 -8 -1 -12 1 -8 -20 -5 -36 5 -16 10
-4 40 13 33 7 -3 16 -1 19 4 9 15 14 12 10 -7z"/>
<path d="M7020 7795 c-7 -8 -9 -15 -6 -15 4 0 2 -10 -5 -21 -6 -12 -7 -19 -2
-16 6 4 19 -2 31 -13 12 -12 23 -16 27 -10 3 6 1 10 -6 10 -8 0 -7 5 2 18 13
15 12 16 -4 3 -14 -11 -20 -12 -30 -2 -9 10 -8 15 7 27 14 10 16 14 5 14 -12
0 -12 2 1 10 8 5 10 10 4 10 -6 0 -17 -7 -24 -15z"/>
<path d="M7115 7686 c10 -14 19 -26 22 -26 7 0 -17 39 -28 46 -6 3 -3 -5 6
-20z"/>
<path d="M6819 7733 c-12 -16 -12 -17 2 -6 9 7 20 9 24 5 5 -4 5 -1 1 6 -9 16
-11 15 -27 -5z"/>
<path d="M6787 7699 c7 -7 15 -10 18 -7 3 3 -2 9 -12 12 -14 6 -15 5 -6 -5z"/>
<path d="M6696 7601 c-4 -5 -2 -12 3 -15 5 -4 12 -2 15 3 4 5 2 12 -3 15 -5 4
-12 2 -15 -3z"/>
<path d="M6720 7556 c0 -2 8 -10 18 -17 15 -13 16 -12 3 4 -13 16 -21 21 -21
13z"/>
<path d="M7254 7512 c-9 -15 -11 -22 -4 -15 7 6 18 9 25 6 8 -2 18 4 23 14 17
31 -24 26 -44 -5z m36 8 c0 -5 -4 -10 -10 -10 -5 0 -10 5 -10 10 0 6 5 10 10
10 6 0 10 -4 10 -10z"/>
<path d="M6679 7433 c-7 -10 -9 -15 -4 -10 4 4 18 -1 29 -10 20 -17 20 -17 6
1 -8 11 -13 21 -12 23 2 3 2 7 -1 9 -2 2 -10 -4 -18 -13z"/>
<path d="M7354 7449 c-8 -14 14 -19 25 -6 8 10 7 14 -5 14 -8 0 -17 -4 -20 -8z"/>
<path d="M7148 7788 c12 -15 43 -19 42 -5 0 4 0 10 0 13 0 4 -6 2 -13 -5 -10
-8 -17 -7 -27 2 -12 10 -12 9 -2 -5z"/>
<path d="M6898 7726 c23 -17 29 -25 19 -29 -8 -3 -19 -1 -25 5 -8 8 -15 8 -25
0 -8 -7 -16 -9 -19 -6 -3 3 -5 -3 -4 -13 0 -9 -3 -18 -9 -18 -5 0 -16 -4 -23
-9 -8 -4 -20 -2 -29 6 -14 11 -15 11 -11 -2 3 -8 -2 -23 -10 -33 -18 -20 -26
-50 -11 -42 5 4 19 -2 32 -12 l24 -17 -21 -18 -21 -18 27 -23 c19 -16 25 -26
18 -37 -5 -8 -7 -17 -4 -21 2 -4 -3 -10 -11 -13 -9 -3 -18 1 -21 9 -8 19 -21
19 -21 0 0 -8 4 -12 9 -9 4 3 8 1 8 -4 0 -5 16 -22 36 -37 31 -24 35 -25 25
-7 -6 12 -18 25 -27 30 -15 8 -15 10 1 15 10 4 13 12 9 19 -6 10 -5 11 8 1 8
-7 18 -10 21 -6 4 3 -1 12 -11 20 -9 8 -11 12 -5 8 7 -3 22 -1 34 5 16 9 24 9
33 0 8 -8 6 -9 -8 -4 -16 6 -18 4 -13 -10 5 -12 3 -15 -6 -10 -7 5 -5 0 3 -11
13 -17 13 -18 0 -11 -8 4 -7 1 3 -7 12 -10 14 -17 8 -22 -6 -3 -11 0 -11 7 0
9 -3 9 -10 -2 -7 -11 -10 -11 -10 -2 0 7 -5 10 -11 7 -6 -5 -4 -12 8 -22 10
-8 12 -12 6 -8 -9 4 -11 1 -7 -9 7 -19 -7 -21 -25 -3 -8 6 -11 7 -8 1 3 -6 0
-11 -8 -11 -8 0 -15 4 -15 9 0 4 5 8 12 8 6 0 8 3 4 7 -4 4 -16 -3 -27 -17
-18 -21 -19 -22 -10 -3 8 15 8 24 1 28 -6 4 -8 11 -5 16 4 5 1 9 -5 9 -7 0
-10 -6 -7 -13 3 -7 -1 -21 -9 -32 -9 -13 -14 -14 -14 -5 0 9 -4 8 -13 -5 -10
-12 -16 -14 -21 -7 -4 7 -5 16 -2 21 3 5 -2 8 -12 7 -10 0 -16 5 -14 14 2 11
-1 11 -12 -3 -12 -15 -15 -16 -26 -2 -10 13 -10 19 5 35 20 22 13 39 -8 21
-11 -9 -17 -8 -27 3 -16 20 20 60 58 62 28 2 65 -22 57 -37 -3 -4 -1 -10 4
-13 13 -9 7 19 -8 38 -7 9 -10 16 -6 16 4 0 2 6 -4 13 -6 8 -7 18 -3 22 4 5 1
5 -6 1 -7 -4 -20 -2 -28 5 -8 7 -14 8 -12 3 2 -5 -10 -24 -26 -42 -27 -30 -31
-31 -47 -16 -16 14 -18 14 -29 -5 -6 -12 -15 -19 -21 -16 -5 4 -9 3 -8 -2 4
-22 -2 -32 -16 -27 -14 6 -20 -6 -16 -29 1 -4 -5 -7 -13 -5 -8 2 -14 -1 -13
-7 1 -5 6 -9 10 -7 4 1 3 -6 -2 -17 -6 -10 -7 -21 -4 -25 11 -11 20 -6 20 12
0 40 4 42 29 15 14 -15 23 -21 19 -13 -4 9 -1 8 8 -3 9 -10 18 -14 21 -8 3 5
3 11 -1 14 -5 2 -2 2 5 0 7 -1 10 2 7 7 -10 16 1 11 16 -7 12 -14 12 -16 0 -8
-10 5 -12 4 -7 -3 11 -19 29 -14 21 6 -5 13 -3 14 6 5 15 -15 1 -36 -19 -28
-9 3 -13 3 -9 -1 4 -4 1 -14 -6 -22 -10 -13 -9 -14 3 -7 13 8 13 6 1 -8 -7 -9
-18 -14 -24 -10 -6 3 -7 1 -3 -5 5 -8 2 -10 -8 -6 -9 3 -16 2 -16 -4 0 -17 27
-33 46 -26 18 5 18 5 1 -6 -9 -6 -22 -8 -29 -4 -7 5 -8 3 -4 -5 5 -7 15 -10
23 -7 8 4 11 1 8 -5 -4 -6 -14 -8 -24 -5 -11 4 -10 2 4 -10 11 -8 19 -19 18
-23 -1 -4 8 -8 20 -8 18 -2 19 0 7 8 -12 9 -11 10 5 4 11 -3 16 -3 12 1 -4 4
-1 14 6 22 10 13 9 14 -3 7 -13 -8 -13 -7 0 10 13 17 13 18 0 10 -13 -8 -13
-6 -1 8 7 9 18 14 24 10 6 -3 7 -1 3 5 -5 8 -2 10 8 6 19 -7 21 7 4 25 -11 11
-10 12 0 6 11 -6 12 -3 3 14 -13 24 -23 28 -15 6 4 -8 1 -15 -7 -15 -7 0 -9 3
-6 7 4 3 1 13 -6 21 -9 13 -9 14 0 8 9 -5 11 -2 7 11 -5 15 -4 16 5 3 9 -13
11 -13 11 0 0 13 1 13 10 0 5 -8 10 -10 10 -5 0 6 7 1 16 -10 18 -24 35 -26
51 -5 7 8 13 10 13 4 0 -5 -6 -16 -12 -23 -11 -11 -10 -12 2 -6 13 8 13 6 1
-8 -7 -9 -17 -14 -22 -11 -5 3 -6 -3 -3 -13 6 -17 6 -17 -8 0 -13 17 -14 15
-13 -28 1 -25 -2 -48 -7 -51 -5 -3 -6 -10 -3 -15 4 -5 1 -9 -4 -9 -6 0 -11 5
-11 10 0 6 -4 10 -8 10 -5 0 -9 -7 -9 -15 0 -8 4 -12 9 -9 4 3 6 -1 5 -8 -2
-7 -2 -10 0 -5 8 12 20 8 20 -8 0 -8 -5 -11 -11 -8 -6 4 -5 -1 2 -9 11 -14 10
-21 -9 -47 -13 -17 -28 -31 -33 -31 -6 0 -4 4 4 10 8 5 11 12 7 16 -4 4 -1 14
6 23 10 14 10 14 -4 4 -9 -7 -20 -9 -25 -5 -4 4 -2 -2 6 -13 14 -20 14 -20 -7
-1 -13 10 -20 23 -17 27 3 5 1 9 -4 9 -6 0 -12 -6 -15 -14 -7 -17 72 -92 91
-88 8 2 11 -1 8 -7 -9 -13 43 -63 56 -55 7 5 9 2 5 -8 -6 -17 69 -95 81 -83 3
3 2 9 -3 13 -15 10 -17 32 -5 46 7 10 3 16 -17 25 -26 12 -26 14 -10 25 21 16
22 23 2 23 -8 0 -12 -3 -10 -7 2 -3 -5 -11 -15 -18 -12 -7 -21 -8 -25 -2 -4 6
-11 7 -17 4 -6 -4 -8 -2 -4 4 3 6 15 9 26 7 26 -5 26 7 0 23 -12 7 -18 17 -15
22 4 6 11 7 17 4 6 -4 6 1 -1 14 -8 14 -8 23 -1 27 8 5 7 11 -1 21 -16 20 5
43 37 39 16 -1 21 1 15 9 -4 6 -7 19 -6 29 2 9 -1 14 -6 11 -12 -7 -41 15 -34
26 3 5 16 7 30 6 13 -2 24 0 23 3 -2 19 4 22 18 10 12 -10 17 -10 23 -1 4 7
16 10 27 6 14 -4 15 -3 6 4 -11 7 -11 10 3 16 9 3 14 10 11 15 -8 13 20 21 31
10 7 -7 9 0 8 18 -2 35 22 74 41 66 8 -3 12 -9 9 -13 -3 -5 -1 -12 5 -15 8 -5
8 -11 0 -20 -12 -14 -4 -23 18 -19 6 1 19 2 28 3 9 0 14 7 11 14 -3 8 5 27 19
43 26 33 31 49 10 41 -21 -8 -37 13 -26 34 7 12 7 20 0 24 -10 6 -6 52 5 63
14 14 36 9 46 -11 11 -20 12 -20 25 -2 8 10 14 14 14 7 0 -6 10 -16 21 -23 12
-6 19 -7 16 -1 -4 5 0 18 8 28 15 19 15 19 30 0 8 -11 15 -14 15 -8 0 7 0 15
0 19 0 4 -7 8 -15 9 -25 4 -43 23 -40 42 3 23 -4 34 -18 25 -7 -4 -17 -8 -24
-9 -16 -3 -46 32 -39 45 4 5 2 12 -4 16 -6 4 -7 12 -3 18 4 8 1 7 -9 -1 -11
-9 -18 -10 -23 -2 -10 17 -28 11 -21 -7 5 -15 4 -15 -9 1 -10 14 -15 15 -15 6
0 -8 -14 5 -31 28 -29 40 -33 42 -49 27 -15 -14 -18 -14 -30 0 -7 8 -17 15
-23 15 -6 0 4 -11 21 -24z m76 -26 c14 -17 29 -31 33 -31 4 0 14 -5 21 -11 11
-10 16 -4 13 16 -1 5 5 4 13 -4 9 -7 16 -9 16 -6 0 4 5 4 10 1 8 -5 7 -11 -1
-21 -9 -11 -8 -14 2 -15 10 0 11 -2 2 -6 -9 -3 -10 -10 -3 -23 8 -16 7 -18 -8
-15 -12 2 -18 -4 -20 -18 -1 -15 1 -18 7 -9 10 17 21 17 33 0 5 -8 6 -1 3 20
-5 30 7 44 19 23 7 -10 25 -9 43 2 7 4 10 1 8 -10 -1 -10 3 -25 10 -33 11 -12
11 -18 -1 -34 -14 -20 -14 -20 -28 0 -14 18 -15 18 -22 1 -6 -17 -7 -17 -21 3
-8 11 -20 20 -28 20 -18 0 -46 -40 -38 -54 4 -6 -1 -5 -10 3 -24 19 -21 -2 3
-24 14 -13 17 -22 10 -35 -7 -13 -4 -22 9 -34 10 -9 21 -13 26 -9 5 5 -4 -8
-18 -28 -15 -20 -24 -39 -19 -44 4 -5 1 -5 -6 -1 -7 4 -10 12 -6 17 3 6 -2 9
-12 7 -10 -2 -19 2 -19 7 0 11 -35 63 -35 52 0 -4 1 -8 2 -9 2 -2 -7 -16 -18
-33 -12 -16 -20 -38 -18 -48 2 -17 1 -17 -15 -3 -22 20 -38 21 -22 2 8 -10 9
-16 1 -21 -6 -3 -8 -11 -5 -16 4 -5 1 -9 -4 -9 -6 0 -11 5 -11 11 0 5 -5 7
-10 4 -6 -4 -8 -10 -5 -15 3 -4 -2 -13 -9 -19 -10 -9 -16 -9 -21 -1 -5 8 -11
8 -19 1 -18 -15 -28 -1 -13 17 10 13 9 14 -11 3 -20 -11 -21 -15 -10 -29 7 -9
8 -14 4 -10 -5 4 -15 3 -23 -4 -11 -9 -11 -14 3 -29 10 -11 14 -19 9 -19 -4 0
-1 -8 6 -17 8 -9 9 -14 3 -10 -6 4 -19 -2 -29 -13 -14 -15 -15 -23 -6 -34 8
-10 9 -16 1 -21 -6 -3 -7 -11 -4 -17 4 -6 2 -8 -4 -4 -6 3 -13 2 -17 -4 -3 -5
-1 -10 6 -10 7 0 9 -3 6 -7 -4 -3 1 -15 10 -26 10 -11 13 -17 6 -14 -6 4 -15
3 -18 -3 -5 -8 -11 -7 -21 1 -7 6 -12 15 -9 19 3 4 -2 13 -10 20 -12 10 -15
10 -15 -1 0 -11 -2 -11 -10 1 -6 10 -2 23 14 45 17 22 23 41 21 73 -1 23 1 45
5 47 4 3 6 18 5 35 -1 16 1 28 5 25 7 -4 44 43 43 55 -1 14 34 27 64 24 24 -2
36 2 43 15 5 10 6 22 2 26 -4 5 -2 5 5 1 6 -3 14 -2 18 4 4 6 10 8 14 6 4 -3
13 5 21 17 12 20 12 21 -4 8 -9 -8 -19 -12 -22 -9 -9 10 -13 49 -4 43 15 -9
20 12 6 24 -15 13 -37 11 -47 -3 -7 -9 -69 32 -69 46 0 4 9 12 20 18 20 11 20
12 -7 40 -15 16 -32 26 -37 23 -6 -4 -2 3 8 15 18 21 21 21 43 7 12 -9 23 -11
23 -6 0 5 -5 13 -10 16 -6 4 -8 11 -4 16 3 5 9 7 14 4 5 -3 18 7 29 22 16 19
24 24 33 15 15 -15 49 3 42 23 -10 25 13 17 40 -15z m-307 -173 c0 -8 -6 -14
-14 -14 -9 0 -10 4 -2 14 6 7 12 13 14 13 1 0 2 -6 2 -13z m-86 -44 c13 -16
12 -17 -3 -4 -10 7 -18 15 -18 17 0 8 8 3 21 -13z m49 -51 c8 7 6 3 -4 -9 -16
-20 -17 -25 -5 -40 13 -16 12 -17 -3 -4 -10 7 -18 10 -18 6 0 -4 -6 -2 -13 4
-8 6 -16 8 -19 6 -17 -17 -48 -12 -63 11 -8 13 -12 25 -8 25 5 1 15 2 23 3 8
0 15 6 15 11 0 6 4 16 9 23 6 11 16 7 40 -17 26 -25 35 -29 46 -19z m133 -67
c-3 -9 -8 -14 -10 -11 -3 3 -2 9 2 15 9 16 15 13 8 -4z m-137 -37 c4 -7 3 -8
-4 -4 -7 4 -12 2 -12 -3 0 -6 4 -11 8 -11 5 0 17 -7 28 -16 10 -8 13 -12 6 -9
-13 7 -39 -19 -40 -39 0 -5 -6 -13 -14 -17 -10 -7 -10 -9 2 -9 13 0 13 -2 0
-9 -23 -15 -31 -2 -14 24 16 25 7 39 -19 29 -8 -3 -18 0 -23 7 -5 8 -3 10 5 4
12 -7 38 19 39 39 0 5 6 13 14 17 17 11 16 11 24 -3z m388 -6 c3 -5 -1 -9 -9
-9 -8 0 -12 4 -9 9 3 4 7 8 9 8 2 0 6 -4 9 -8z m-399 -232 c10 -11 16 -20 13
-20 -3 0 -13 9 -23 20 -10 11 -16 20 -13 20 3 0 13 -9 23 -20z m187 -150 c-12
-9 -13 -30 0 -30 6 0 8 -3 5 -7 -4 -3 -18 4 -32 17 -18 17 -22 27 -14 36 8 10
15 10 29 1 11 -6 16 -14 12 -17z"/>
<path d="M6944 7713 c9 -16 -34 -45 -49 -33 -8 7 -19 2 -35 -15 -13 -13 -28
-22 -34 -19 -6 3 -3 -1 7 -9 12 -10 14 -17 8 -22 -18 -11 -12 -28 7 -20 13 5
14 4 5 -6 -10 -10 -18 -7 -38 15 -14 15 -30 24 -36 20 -7 -4 1 -19 21 -39 l32
-33 -23 -15 -22 -16 24 -20 c13 -10 28 -16 34 -13 21 13 43 11 59 -7 15 -16
15 -20 1 -31 -8 -7 -12 -16 -9 -22 3 -5 11 -5 19 2 8 7 15 7 19 1 4 -5 2 -12
-4 -16 -6 -4 -8 -11 -5 -16 6 -8 -8 -13 -27 -10 -4 0 -16 -13 -28 -29 -17 -24
-26 -28 -54 -26 -31 3 -38 -1 -68 -43 -18 -25 -33 -53 -33 -61 0 -8 -3 -19 -6
-25 -3 -5 -5 -28 -4 -50 1 -24 -4 -47 -13 -57 -8 -10 -11 -18 -7 -18 5 0 0 -7
-11 -16 -10 -8 -14 -13 -9 -10 15 7 36 -8 39 -28 1 -9 5 -16 9 -16 4 0 9 0 12
0 3 0 -1 11 -10 23 -14 22 -14 25 5 42 15 14 17 21 9 32 -9 10 -7 18 7 34 23
26 26 45 8 60 -12 10 -12 15 3 31 10 11 17 23 17 27 -3 15 8 27 26 28 23 2 25
-7 8 -27 -11 -12 -10 -12 4 -2 11 9 18 10 23 2 3 -6 11 -8 16 -4 5 3 7 9 4 14
-5 8 11 23 28 26 4 1 10 2 13 3 4 0 2 7 -5 14 -8 10 -7 17 1 25 14 14 32 16
23 3 -3 -5 0 -13 7 -17 7 -4 10 -4 6 1 -4 4 1 20 12 35 11 15 17 29 14 32 -2
3 2 10 9 17 12 9 18 6 33 -16 10 -16 17 -32 16 -37 -2 -5 4 -4 12 4 13 10 16
10 16 -1 0 -8 6 -5 14 7 13 17 12 21 -4 39 -13 14 -16 25 -9 37 7 12 3 21 -15
35 -21 17 -22 21 -10 38 10 14 14 15 14 4 1 -23 24 23 26 51 3 42 4 45 14 30
8 -12 9 -9 6 10 -2 14 1 30 6 37 10 12 -16 13 -28 0 -4 -4 -13 -2 -21 4 -7 6
-13 8 -13 3 0 -5 -16 9 -36 31 -19 22 -33 35 -30 28z m66 -68 c5 3 12 1 15 -5
5 -8 11 -8 20 0 16 14 15 -4 -3 -36 -6 -12 -8 -25 -4 -30 4 -5 -1 -2 -10 5
-22 16 -24 -1 -3 -19 15 -12 11 -35 -5 -25 -13 8 -39 -40 -29 -56 5 -8 9 -10
9 -5 0 5 7 3 15 -4 10 -9 12 -17 5 -30 -7 -13 -4 -22 10 -35 11 -10 18 -21 15
-24 -15 -14 -37 -6 -56 20 -21 29 -22 30 -43 12 -11 -9 -15 -11 -9 -3 19 21
-3 45 -26 28 -13 -10 -12 -8 1 8 17 20 17 21 -5 42 -22 21 -41 23 -63 9 -7 -4
-17 0 -25 9 -10 12 -9 18 4 32 16 15 15 18 -15 49 -18 18 -29 33 -25 33 3 0
17 -12 31 -27 21 -22 27 -24 40 -14 18 15 11 35 -7 24 -8 -5 -8 -2 0 9 7 8 10
18 6 21 -12 12 29 48 42 37 6 -5 15 -7 18 -3 4 3 14 0 24 -8 15 -12 16 -12 10
4 -13 35 5 40 30 8 14 -17 28 -29 33 -26z m-82 -269 c-10 -7 -16 -16 -13 -20
3 -3 0 -2 -6 3 -18 15 -51 -30 -36 -49 6 -8 7 -12 2 -7 -11 9 -46 -23 -38 -36
3 -6 1 -7 -5 -3 -6 3 -9 16 -7 27 3 16 1 19 -13 14 -9 -4 -23 -8 -30 -9 -14
-3 -44 -41 -36 -48 2 -3 -2 -11 -10 -17 -11 -10 -14 -9 -12 2 2 18 66 104 66
89 0 -7 5 -12 11 -12 5 0 7 5 4 10 -8 12 17 9 26 -3 3 -5 18 6 34 24 15 18 34
34 42 35 8 2 17 5 21 8 3 3 8 6 11 6 3 0 -2 -7 -11 -14z m-182 -200 c1 -8 -6
-22 -15 -30 -16 -15 -17 -13 -15 22 1 20 2 39 3 42 2 8 25 -20 27 -34z m-22
-75 c3 -4 -3 -16 -13 -26 -20 -17 -24 -4 -8 23 10 14 14 15 21 3z"/>
<path d="M6950 7683 c0 -7 5 -15 11 -19 8 -4 7 -9 -2 -15 -7 -4 -19 -4 -25 2
-6 5 -19 7 -28 3 -9 -4 -16 -1 -16 6 0 10 -3 10 -15 0 -14 -12 -16 -43 -2 -56
3 -4 -7 -24 -24 -45 -17 -22 -27 -44 -23 -50 5 -9 11 -7 21 6 9 14 13 15 13 4
0 -10 2 -11 8 -2 5 8 19 1 45 -22 36 -32 50 -54 25 -39 -9 5 -9 3 1 -9 7 -9
17 -15 21 -12 9 5 52 -30 50 -41 0 -4 7 -9 16 -10 13 -2 13 1 -4 19 -16 17
-18 26 -11 40 10 17 9 18 -11 21 -6 0 -15 8 -20 15 -11 18 26 74 43 65 7 -3 2
3 -10 14 -18 16 -20 22 -9 31 7 6 15 9 17 6 3 -2 11 5 18 17 7 11 8 17 2 14
-5 -4 -12 -2 -16 3 -3 6 -11 8 -18 6 -7 -3 -22 10 -34 27 -13 18 -23 27 -23
21z m-54 -44 c5 -8 9 -8 14 1 5 8 13 9 21 4 21 -13 39 -14 39 -2 0 6 9 0 20
-13 11 -14 19 -18 20 -11 0 7 5 10 10 7 6 -4 0 -15 -14 -26 -24 -19 -27 -57
-3 -42 6 3 -1 -9 -16 -28 -25 -33 -25 -37 -11 -57 8 -12 20 -20 25 -17 5 3 6
-1 2 -10 -3 -9 -9 -12 -12 -7 -3 5 -14 8 -24 6 -15 -2 -16 0 -6 12 6 8 7 14 2
14 -5 0 -28 17 -51 38 -23 22 -42 35 -42 30 0 -5 -4 -7 -9 -3 -6 3 -14 -3 -20
-12 -6 -10 -11 -13 -11 -6 0 6 10 19 22 27 12 9 19 16 14 16 -5 0 -2 8 7 18
10 10 14 22 10 26 -4 3 -8 15 -10 26 -3 21 11 27 23 9z"/>
<path d="M6884 7628 c1 -7 5 -18 9 -24 4 -7 0 -17 -8 -24 -12 -10 -12 -15 0
-34 8 -12 29 -33 47 -46 18 -13 30 -20 26 -15 -4 4 1 20 12 34 12 18 16 32 10
41 -6 10 -4 20 6 31 12 14 13 19 2 25 -7 5 -20 9 -28 9 -8 0 -20 4 -27 8 -6 4
-15 3 -18 -3 -5 -8 -11 -8 -20 0 -10 8 -13 8 -11 -2z m79 -14 c30 -3 30 -4 14
-22 -10 -11 -13 -22 -7 -31 5 -9 3 -23 -7 -38 l-15 -23 -34 32 c-30 28 -32 34
-19 48 12 13 12 19 2 30 -8 9 -8 11 0 6 6 -3 14 -2 18 4 4 6 12 7 18 3 7 -4
20 -8 30 -9z"/>
<path d="M6915 7610 c-3 -5 -3 -10 1 -10 4 0 0 -8 -9 -18 -15 -17 -15 -20 12
-43 27 -24 29 -24 40 -7 6 10 7 18 2 18 -12 0 -8 24 7 43 11 13 10 15 -5 12
-10 -1 -23 2 -30 7 -7 5 -14 5 -18 -2z m41 -12 c4 4 3 0 -4 -9 -6 -9 -8 -20
-4 -24 4 -5 1 -5 -5 -1 -7 4 -13 2 -13 -3 0 -6 5 -11 10 -11 6 0 10 -5 10 -10
0 -6 -11 -3 -25 6 -23 15 -24 18 -10 34 8 9 12 21 8 25 -5 5 -1 4 8 -3 9 -6
20 -8 25 -4z"/>
<path d="M6919 7573 c-13 -16 -12 -17 4 -4 9 7 17 15 17 17 0 8 -8 3 -21 -13z"/>
<path d="M6839 7303 c-13 -16 -12 -17 4 -4 16 13 21 21 13 21 -2 0 -10 -8 -17
-17z"/>
<path d="M6724 7175 c0 -13 3 -22 7 -19 8 4 6 30 -2 38 -3 3 -5 -5 -5 -19z"/>
<path d="M7106 7567 c1 -17 3 -34 3 -36 1 -3 6 0 13 7 8 8 15 8 24 1 21 -17
38 0 20 20 -9 10 -13 20 -10 24 3 3 -2 4 -13 3 -10 -2 -23 0 -29 5 -7 6 -10
-2 -8 -24z m50 -12 c9 -8 11 -15 5 -15 -5 0 -13 5 -16 10 -5 8 -12 7 -23 -2
-15 -12 -16 -11 -3 5 16 21 19 21 37 2z"/>
<path d="M6549 7467 c-1 -4 -2 -10 -3 -14 -4 -21 -20 -34 -35 -29 -14 5 -14 4
1 -7 10 -8 15 -17 11 -20 -3 -4 5 -4 17 -2 12 2 25 7 28 10 3 2 12 -1 20 -8
11 -8 14 -8 9 0 -4 6 -2 13 3 15 6 2 -3 16 -20 33 -16 16 -31 26 -31 22z m41
-53 c0 -4 -3 -4 -6 -1 -4 3 -15 2 -25 -3 -23 -13 -34 3 -14 20 8 7 12 17 8 24
-3 6 4 1 16 -11 11 -12 21 -25 21 -29z"/>
<path d="M6545 7420 c-3 -6 1 -7 9 -4 18 7 21 14 7 14 -6 0 -13 -4 -16 -10z"/>
<path d="M6591 7296 c-8 -10 -7 -16 3 -25 10 -8 16 -9 21 -1 3 5 3 10 -2 10
-4 0 -2 4 5 9 11 7 11 9 -1 14 -9 3 -20 0 -26 -7z m16 -11 c0 -8 -4 -12 -9 -9
-5 3 -6 10 -3 15 9 13 12 11 12 -6z"/>
<path d="M6766 6952 c-3 -5 1 -15 8 -21 11 -10 14 -9 12 3 -3 21 -13 29 -20
18z"/>
<path d="M7230 7721 c0 -6 5 -13 10 -16 14 -9 1 -27 -13 -19 -7 4 -8 3 -4 -1
14 -15 33 -13 58 6 13 11 17 17 8 14 -9 -3 -22 1 -29 10 -14 17 -30 20 -30 6z
m29 -15 c9 -11 9 -16 -1 -22 -7 -4 -10 -4 -6 1 4 4 3 14 -3 22 -6 7 -9 13 -6
13 2 0 10 -6 16 -14z"/>
<path d="M7275 7600 c3 -5 8 -10 11 -10 2 0 4 5 4 10 0 6 -5 10 -11 10 -5 0
-7 -4 -4 -10z"/>
<path d="M7195 7520 c3 -5 8 -10 11 -10 2 0 4 5 4 10 0 6 -5 10 -11 10 -5 0
-7 -4 -4 -10z"/>
<path d="M7330 7522 c0 -7 0 -14 0 -17 0 -3 1 -4 3 -3 1 1 12 -4 24 -10 17
-10 21 -9 19 3 -3 20 -26 44 -26 27 0 -7 5 -12 12 -12 6 0 8 -3 4 -7 -4 -5
-14 1 -22 11 -8 11 -14 14 -14 8z"/>
<path d="M7270 7440 c0 -5 5 -10 11 -10 5 0 7 5 4 10 -3 6 -8 10 -11 10 -2 0
-4 -4 -4 -10z"/>
<path d="M7493 7437 c4 -11 1 -20 -7 -23 -8 -3 -14 -14 -13 -24 1 -18 3 -18
18 -4 17 15 18 49 3 63 -4 3 -4 -2 -1 -12z"/>
<path d="M6845 7430 c-4 -6 -10 -8 -15 -5 -5 3 -11 1 -14 -4 -4 -5 -2 -12 3
-15 5 -4 12 -2 16 4 4 6 10 8 14 6 4 -3 8 1 8 9 0 18 -3 19 -12 5z"/>
<path d="M6445 7380 c6 -10 4 -12 -8 -7 -12 4 -14 2 -10 -10 5 -13 2 -15 -12
-9 -11 4 -16 4 -12 0 4 -4 -2 -14 -14 -22 -20 -14 -20 -14 8 -42 15 -15 34
-25 42 -22 8 3 12 1 8 -5 -9 -14 25 -51 42 -45 8 3 11 0 7 -7 -4 -6 -2 -11 3
-11 6 0 10 -6 9 -12 -2 -7 3 -12 10 -10 6 1 12 -4 12 -12 0 -23 41 -48 56 -35
14 12 38 3 29 -11 -6 -10 15 -8 33 4 20 12 27 -1 11 -21 -12 -17 -12 -17 5 -1
18 16 18 17 -2 42 -24 31 -22 61 4 61 16 0 19 8 19 50 1 45 3 50 23 49 20 -1
23 9 4 12 -18 2 -41 17 -37 23 2 4 -2 8 -10 8 -11 0 -12 -4 -4 -13 20 -24 20
-63 0 -73 -10 -6 -21 -8 -24 -5 -3 3 -4 -2 -3 -13 2 -10 -1 -24 -7 -30 -5 -7
-6 -13 -2 -13 4 0 2 -7 -5 -15 -8 -10 -23 -13 -44 -10 -20 3 -26 2 -18 -3 11
-8 11 -10 -1 -15 -10 -4 -14 0 -13 11 2 9 8 18 15 20 8 3 6 9 -8 18 -12 9 -18
22 -16 34 2 11 -3 24 -12 28 -13 8 -12 11 7 25 13 9 27 14 32 11 5 -3 8 -2 7
3 -1 4 0 10 1 13 1 3 3 13 5 23 3 14 0 16 -10 7 -9 -8 -20 -4 -43 15 -29 24
-31 24 -27 6 2 -11 -1 -23 -6 -27 -12 -7 -41 15 -34 26 3 5 0 12 -6 16 -8 5
-9 3 -4 -6z m89 -51 c-6 -11 8 -12 22 -1 5 4 -6 -7 -25 -24 -33 -29 -34 -32
-15 -42 10 -6 13 -12 7 -12 -7 0 -13 -5 -13 -11 0 -5 6 -7 13 -3 6 4 9 3 4 -1
-4 -5 0 -17 10 -27 9 -10 14 -18 12 -19 -2 0 -12 -2 -21 -4 -12 -2 -15 3 -13
16 2 11 -4 23 -16 29 -10 6 -19 8 -19 4 0 -3 -7 -1 -15 6 -8 6 -14 15 -13 18
3 28 -2 34 -19 21 -11 -10 -14 -10 -9 -1 4 7 2 12 -4 12 -7 0 -9 9 -5 23 7 21
6 21 -7 3 -10 -13 -17 -15 -22 -8 -8 14 22 32 55 32 5 0 7 6 3 13 -4 6 2 4 14
-7 18 -15 24 -16 37 -6 8 7 12 17 8 24 -3 6 3 3 15 -8 12 -10 19 -23 16 -27z
m142 -93 c0 -14 -4 -22 -8 -20 -5 3 -5 10 -2 16 5 8 1 9 -12 5 -18 -7 -18 -7
0 8 11 8 20 15 21 15 1 0 1 -11 1 -24z m-40 -63 c-2 -10 2 -21 8 -25 8 -5 7
-8 -2 -8 -8 0 -10 -5 -6 -12 4 -7 -2 -4 -14 6 -21 18 -21 20 -6 38 21 22 23
22 20 1z m-54 -20 c-6 -3 -10 -9 -7 -14 4 -5 -1 -6 -10 -3 -14 6 -14 8 2 19
10 8 20 11 23 8 3 -3 -1 -8 -8 -10z"/>
<path d="M6497 7333 c-13 -13 -19 -14 -30 -4 -12 9 -18 8 -31 -4 -16 -17 -13
-40 4 -30 9 6 37 -37 29 -44 -2 -2 4 -5 13 -7 21 -3 33 12 18 21 -8 5 -5 14 6
26 32 36 24 74 -9 42z m19 -8 c-1 -8 -10 -22 -19 -33 -11 -12 -13 -22 -7 -28
7 -7 6 -11 -4 -11 -8 0 -13 3 -11 7 8 12 -26 51 -38 43 -7 -4 -6 1 2 10 11 14
17 15 28 5 11 -9 18 -8 31 5 20 21 21 21 18 2z"/>
<path d="M6463 7305 c17 -19 17 -19 35 0 16 18 16 18 0 6 -15 -11 -21 -11 -35
0 -17 12 -17 12 0 -6z"/>
<path d="M6615 7161 c-3 -5 -2 -12 3 -15 5 -3 9 1 9 9 0 17 -3 19 -12 6z"/>
<path d="M7274 7345 c5 -29 -3 -38 -21 -23 -18 15 -29 2 -14 -16 14 -16 47
-14 43 4 -1 6 2 9 8 5 8 -5 8 -11 1 -19 -6 -7 -8 -16 -4 -19 3 -4 1 -7 -5 -7
-7 0 -12 5 -12 12 0 15 -13 1 -16 -17 -3 -18 1 -18 27 -4 11 5 17 14 14 20 -4
5 -1 10 4 10 6 1 17 2 24 3 6 1 25 -11 41 -26 16 -15 33 -25 38 -22 4 3 8 0 8
-5 0 -6 -5 -11 -11 -11 -6 0 -8 -8 -4 -19 3 -11 1 -22 -5 -26 -6 -3 -8 -11 -4
-16 3 -5 9 -7 14 -4 4 3 10 -2 13 -9 7 -16 -18 -42 -27 -28 -13 21 -68 0 -59
-23 3 -8 1 -15 -5 -15 -17 0 -8 -58 10 -69 12 -7 18 -8 18 -1 0 5 6 9 13 8 6
-2 13 4 13 12 1 8 3 17 4 20 1 3 3 13 5 24 2 10 9 24 16 30 9 8 10 8 5 -1 -3
-6 -2 -15 4 -18 6 -4 9 -1 8 7 -2 7 4 12 13 10 9 -1 19 5 23 13 3 9 11 13 17
9 7 -4 9 -3 6 3 -4 6 0 16 7 22 10 8 16 9 21 1 8 -13 25 -13 25 1 0 5 -4 8 -9
4 -5 -3 -12 -1 -16 4 -3 6 -12 8 -19 5 -8 -3 -17 0 -21 6 -6 9 -10 9 -16 -1
-7 -12 -11 -11 -23 1 -25 26 -23 44 4 45 14 1 24 6 23 13 -2 7 2 12 8 12 5 0
7 5 3 12 -5 8 -13 5 -25 -10 -14 -18 -18 -19 -23 -6 -4 10 -2 13 7 8 9 -5 9
-4 0 7 -16 16 -17 29 -2 29 5 0 8 -4 4 -9 -3 -5 0 -13 6 -17 7 -4 9 -3 6 2 -3
6 5 10 18 10 13 0 21 -4 18 -10 -4 -5 0 -6 8 -1 11 6 12 5 2 -6 -18 -19 -16
-30 5 -27 9 2 16 -2 15 -7 -1 -6 12 -10 27 -10 16 -1 27 1 25 4 -3 2 0 10 6
18 6 7 8 13 4 13 -4 0 -14 -8 -22 -17 -13 -16 -13 -16 -4 4 7 13 7 24 2 27 -5
4 -11 0 -14 -6 -3 -10 -8 -10 -18 1 -12 12 -12 13 1 6 9 -5 7 1 -5 15 -11 13
-15 20 -8 17 6 -4 19 3 29 15 9 13 14 16 11 7 -3 -9 0 -22 6 -29 9 -10 9 -11
-3 -5 -12 6 -12 4 1 -10 14 -15 20 -15 40 -4 13 7 27 13 30 14 3 0 13 8 23 18
14 13 15 21 7 31 -12 14 -35 16 -47 3 -13 -13 -25 -7 -22 9 2 10 -3 19 -10 22
-9 2 -12 -3 -10 -14 2 -10 -3 -19 -9 -20 -7 -1 -16 -3 -20 -4 -5 -1 -12 -1
-18 0 -5 1 -7 -2 -3 -6 8 -8 -28 -37 -49 -40 -7 -1 -21 8 -30 20 -20 24 -29
25 -60 8 -13 -7 -24 -10 -24 -7 -1 3 -2 9 -3 14 0 5 -4 12 -8 16 -4 4 -4 14
-1 23 4 15 3 15 -6 2 -6 -8 -11 -10 -11 -5 0 6 -9 11 -20 12 -16 1 -19 -3 -16
-22z m52 -28 c2 -15 1 -15 -20 0 -13 10 -23 23 -23 30 0 20 40 -8 43 -30z
m312 14 c2 -1 0 -6 -3 -11 -5 -8 -11 -7 -21 1 -17 14 -19 -2 -1 -20 8 -10 8
-12 0 -7 -6 3 -14 2 -18 -4 -4 -6 -11 -8 -16 -5 -5 4 -9 1 -9 -4 0 -6 -5 -11
-12 -11 -6 0 -8 3 -5 7 4 3 3 11 -3 17 -5 7 -5 18 0 26 7 11 12 11 23 2 12
-10 16 -10 20 2 5 12 17 14 45 7z m-236 -29 c-8 -2 -9 -9 -2 -22 15 -28 -4
-33 -27 -6 -18 21 -19 24 -4 33 9 6 23 8 30 5 10 -4 11 -7 3 -10z m123 -71
c-3 -2 -11 1 -18 7 -8 7 -18 8 -22 4 -5 -4 -5 -1 -1 5 5 10 11 10 26 1 11 -7
17 -14 15 -17z m-79 -82 c4 -1 11 5 15 13 5 8 9 9 9 2 0 -14 -27 -37 -47 -40
-11 -2 -13 0 -5 8 14 14 -4 52 -20 42 -7 -5 -8 -2 -3 6 6 10 12 8 26 -9 10
-12 21 -22 25 -22z m-73 -27 c3 7 4 -1 3 -17 -2 -29 -44 -87 -47 -65 -1 6 -2
16 -3 23 -3 20 14 36 32 30 15 -6 15 -5 3 10 -7 9 -18 14 -24 10 -6 -3 -7 -1
-3 6 6 9 11 9 21 1 10 -8 14 -7 18 2z m-3 -82 c0 -5 -2 -10 -4 -10 -3 0 -8 5
-11 10 -3 6 -1 10 4 10 6 0 11 -4 11 -10z"/>
<path d="M7555 7310 c-3 -5 -5 -10 -3 -11 27 -6 39 -5 45 4 3 7 3 9 -2 5 -4
-4 -14 -3 -21 3 -8 7 -14 7 -19 -1z"/>
<path d="M7376 7301 c-3 -4 1 -17 10 -27 14 -18 15 -18 5 2 -6 12 -7 24 -4 28
3 3 4 6 0 6 -3 0 -8 -4 -11 -9z"/>
<path d="M7339 7087 c0 -1 -2 -10 -4 -20 -3 -15 -1 -16 13 -5 9 7 18 13 20 14
2 1 -4 4 -13 7 -8 4 -15 5 -16 4z"/>
<path d="M7190 7318 c0 -4 4 -8 9 -8 6 0 12 4 15 8 3 5 -1 9 -9 9 -8 0 -15 -4
-15 -9z"/>
<path d="M7192 7294 c-13 -9 -19 -21 -15 -27 3 -7 -2 -4 -13 5 -19 17 -20 16
-19 -11 0 -16 6 -36 14 -44 7 -9 9 -22 5 -29 -12 -18 -14 -38 -4 -38 5 0 10 6
13 13 3 9 7 9 20 -2 10 -7 17 -10 17 -6 0 4 6 3 13 -2 17 -13 60 -10 65 5 2 6
-2 12 -8 12 -7 0 -9 8 -5 19 3 11 1 22 -5 26 -6 3 -8 11 -4 16 3 5 10 7 15 4
5 -4 9 -1 9 4 0 14 -13 14 -28 -1 -13 -13 -13 -13 -16 30 -2 20 -14 42 -24 42
-4 0 -18 -7 -30 -16z m43 -31 c0 -17 7 -34 19 -44 11 -9 16 -21 12 -28 -6 -9
-11 -9 -22 0 -8 7 -14 7 -14 1 0 -13 25 -33 32 -26 3 3 9 1 12 -4 4 -7 -43 -9
-51 -2 -2 1 -7 3 -12 4 -5 0 -13 5 -18 10 -5 5 -3 6 5 2 22 -13 12 5 -16 29
-16 13 -29 31 -29 39 0 12 4 13 14 5 13 -11 15 -9 17 20 1 8 7 16 15 19 10 3
12 0 7 -13 -5 -15 -4 -16 9 -5 8 7 12 17 8 23 -3 5 -2 7 4 4 5 -4 9 -19 8 -34z"/>
<path d="M7200 7251 c-13 -11 -29 -17 -35 -14 -5 2 3 -7 19 -22 23 -21 31 -24
43 -14 12 10 16 10 24 -2 6 -9 9 -10 9 -2 0 7 -9 17 -19 23 -12 6 -18 18 -16
30 5 24 6 24 -25 1z m15 -10 c-3 -5 -1 -12 5 -16 20 -12 -1 -25 -22 -14 -21
11 -21 12 -3 25 22 16 28 18 20 5z"/>
<path d="M7190 7226 c0 -2 7 -7 16 -10 8 -3 12 -2 9 4 -6 10 -25 14 -25 6z"/>
<path d="M7515 7291 c-3 -5 -2 -12 3 -15 5 -3 9 1 9 9 0 17 -3 19 -12 6z"/>
<path d="M7363 7213 c-15 -5 -17 -23 -4 -23 5 0 11 7 15 15 3 8 4 15 3 14 -1
0 -8 -3 -14 -6z"/>
<path d="M6874 7075 c0 -12 5 -22 11 -23 5 0 19 -3 31 -5 17 -4 21 -1 19 21
-1 22 -6 26 -31 27 -24 1 -30 -3 -30 -20z m52 -1 c-1 -8 -6 -17 -12 -21 -5 -4
-6 -4 -2 1 4 5 3 14 -2 21 -7 8 -5 12 4 12 8 0 13 -6 12 -13z"/>
<path d="M7209 7087 c7 -7 7 -17 0 -30 -8 -13 -8 -17 -1 -13 6 3 13 2 16 -3
11 -16 -19 -28 -66 -27 -27 1 -46 -2 -45 -8 1 -6 -3 -10 -10 -11 -6 0 -15 -3
-18 -7 -4 -4 -16 -3 -27 3 -28 15 -68 21 -68 10 0 -14 26 -31 36 -23 4 4 3 0
-4 -9 -6 -9 -9 -18 -6 -22 3 -3 -2 -4 -13 -3 -11 2 -18 11 -17 25 2 24 0 25
-27 10 -11 -5 -17 -14 -14 -18 3 -5 -2 -11 -10 -15 -8 -3 -19 2 -24 12 -7 13
-9 9 -7 -18 2 -31 5 -34 34 -35 17 0 30 4 29 9 -1 6 3 10 10 11 6 0 15 3 18 7
4 4 16 3 27 -3 31 -17 61 -20 69 -7 6 9 11 8 23 -1 11 -9 16 -10 16 -2 0 6 -6
11 -12 11 -7 0 -5 5 5 11 9 6 15 14 12 20 -4 5 -1 10 4 10 46 6 78 4 90 -5 11
-8 13 -8 7 2 -4 6 -1 18 6 26 8 7 14 32 13 57 -1 40 -3 43 -28 44 -19 1 -25
-1 -18 -8z m38 -14 c0 -9 -4 -10 -14 -2 -7 6 -13 12 -13 14 0 1 6 2 13 2 8 0
14 -6 14 -14z m-1 -49 c-1 -8 -6 -14 -11 -13 -4 0 -11 -5 -16 -12 -10 -17 -56
-19 -69 -4 -7 9 -3 12 15 11 13 -1 27 -5 31 -8 3 -4 15 3 24 15 14 17 16 25 7
37 -10 13 -10 13 5 2 9 -7 15 -20 14 -28z m-198 -39 c3 -3 -4 -4 -16 -2 -12 2
-24 6 -28 10 -4 3 4 4 16 2 12 -2 25 -7 28 -10z m83 -9 c-6 -7 -8 -16 -4 -19
3 -4 1 -7 -5 -7 -7 0 -12 5 -12 11 0 5 -5 7 -10 4 -6 -4 -8 -10 -5 -15 6 -10
-16 -27 -32 -24 -7 1 -19 2 -25 3 -7 0 -2 8 10 17 12 8 19 20 16 26 -4 6 -2 8
4 4 6 -3 13 -2 17 4 4 6 10 8 15 5 5 -3 11 -1 15 5 4 6 11 8 16 4 6 -4 6 -10
0 -18z m-152 -28 c7 -13 10 -20 6 -16 -5 4 -14 3 -21 -3 -8 -6 -14 -6 -18 0
-4 5 -2 12 4 16 6 4 8 11 5 16 -4 5 -2 9 2 9 5 0 14 -10 22 -22z m71 12 c0 -5
-4 -10 -10 -10 -5 0 -10 5 -10 10 0 6 5 10 10 10 6 0 10 -4 10 -10z m-121 -33
c8 -10 7 -14 -2 -14 -8 0 -14 6 -14 14 0 7 1 13 2 13 2 0 8 -6 14 -13z"/>
<path d="M7071 6956 c-21 -22 -21 -24 -5 -22 11 2 19 7 19 12 0 5 4 15 8 22
13 20 2 14 -22 -12z"/>
<path d="M6950 6998 c0 -4 4 -8 9 -8 6 0 12 4 15 8 3 5 -1 9 -9 9 -8 0 -15 -4
-15 -9z"/>
<path d="M6993 6965 c0 -8 4 -12 9 -9 5 3 6 10 3 15 -9 13 -12 11 -12 -6z"/>
<path d="M6870 6960 c0 -5 5 -10 10 -10 6 0 10 5 10 10 0 6 -4 10 -10 10 -5 0
-10 -4 -10 -10z"/>
<path d="M7270 6919 c0 -5 5 -7 10 -4 6 3 10 8 10 11 0 2 -4 4 -10 4 -5 0 -10
-5 -10 -11z"/>
<path d="M6925 6860 c-4 -6 -12 -7 -18 -3 -7 4 -5 -4 4 -17 8 -13 23 -24 33
-26 13 -2 15 1 6 11 -7 8 -9 19 -6 24 4 5 2 12 -3 15 -5 4 -12 2 -16 -4z"/>
<path d="M7124 6853 c-9 -7 -22 -9 -28 -5 -6 5 -17 7 -23 6 -7 -1 -20 -2 -29
-3 -10 -1 -14 -7 -10 -16 3 -9 -6 -23 -24 -37 -20 -14 -27 -25 -20 -32 11 -11
40 -17 39 -8 -3 17 2 32 9 30 4 -2 8 1 9 6 3 19 28 25 44 10 12 -10 19 -12 24
-4 3 5 10 8 15 5 5 -3 11 -1 15 5 4 6 12 7 18 4 7 -4 9 -3 4 1 -4 5 -1 18 7
30 13 19 12 21 -9 21 -13 0 -31 -6 -41 -13z m40 -5 c-3 -5 -10 -6 -15 -2 -6 3
-9 -2 -7 -12 2 -10 -1 -19 -7 -19 -5 0 -15 -3 -21 -7 -6 -4 -21 3 -34 17 -20
21 -20 23 -4 20 11 -2 19 -4 19 -5 0 -9 35 -5 38 4 3 7 12 13 21 13 8 0 13 -4
10 -9z m-113 -32 c-6 -7 -9 -16 -6 -19 3 -4 2 -5 -2 -2 -3 3 -13 -1 -22 -7 -9
-7 -6 -1 7 13 12 14 19 29 15 34 -5 4 -2 5 5 1 9 -6 10 -11 3 -20z"/>
<path d="M7080 6837 c0 -2 6 -10 14 -16 11 -9 16 -9 22 1 4 7 4 10 -1 6 -4 -4
-14 -3 -22 3 -7 6 -13 9 -13 6z"/>
<path d="M935 6345 c-112 -18 -133 -22 -195 -40 -30 -9 -63 -18 -73 -20 -124
-28 -481 -230 -459 -259 28 -37 188 -242 192 -246 3 -3 25 -32 50 -65 25 -33
50 -65 55 -71 11 -11 24 -28 145 -184 45 -58 93 -118 105 -135 13 -16 52 -66
86 -110 35 -44 65 -82 68 -85 3 -3 37 -47 76 -97 38 -51 73 -93 77 -93 5 0 8
-4 8 -10 0 -5 7 -18 15 -27 15 -19 231 -295 275 -352 14 -18 30 -38 35 -44 6
-7 75 -95 155 -197 79 -102 148 -186 152 -188 4 -2 8 -10 8 -17 0 -7 4 -15 8
-17 4 -1 63 -75 132 -163 68 -88 135 -174 149 -191 40 -48 54 -66 86 -109 17
-22 35 -46 42 -55 7 -8 44 -55 83 -105 39 -49 76 -97 83 -105 7 -8 26 -33 42
-55 16 -22 32 -42 35 -45 3 -3 37 -45 75 -95 39 -49 75 -97 82 -105 7 -8 42
-53 78 -100 66 -85 78 -101 168 -214 100 -127 147 -178 229 -252 50 -45 185
-144 197 -144 5 0 11 -4 13 -9 4 -11 193 -107 228 -116 3 0 16 -7 30 -15 14
-7 27 -13 30 -13 3 0 10 -1 15 -3 99 -31 214 -57 310 -70 57 -7 372 -8 425 -1
75 11 125 19 130 22 3 2 22 6 43 9 55 9 211 63 297 104 68 32 218 118 230 132
3 3 21 17 40 30 77 54 182 155 263 255 31 39 65 80 77 93 11 12 20 25 20 27 0
4 188 244 230 293 11 13 20 26 20 28 0 4 16 24 62 77 15 18 28 35 28 38 0 3
10 17 21 30 12 13 33 40 48 59 14 19 29 37 32 40 3 3 19 23 35 46 l29 40 -2
1220 c0 670 -2 1221 -2 1224 -2 10 -63 -62 -243 -292 -257 -327 -294 -375
-353 -453 -33 -44 -64 -82 -68 -84 -4 -1 -19 -19 -32 -40 -14 -20 -49 -66 -77
-102 -29 -37 -91 -115 -138 -175 -46 -60 -89 -114 -95 -121 -17 -20 -29 -36
-60 -78 -17 -22 -32 -42 -35 -45 -4 -3 -53 -66 -110 -140 -58 -74 -107 -137
-110 -140 -3 -3 -17 -21 -30 -40 -13 -19 -27 -37 -31 -40 -3 -3 -30 -36 -60
-75 -29 -38 -58 -75 -64 -81 -5 -6 -21 -26 -35 -44 -27 -37 -143 -186 -163
-210 -7 -8 -32 -41 -57 -72 -25 -32 -47 -58 -50 -58 -3 0 -59 71 -125 156 -66
86 -125 161 -130 168 -19 21 -60 72 -85 106 -14 18 -45 59 -70 90 -25 31 -54
69 -65 84 -11 16 -35 44 -52 65 -18 20 -33 39 -33 43 0 4 -11 18 -25 32 -14
14 -25 28 -25 32 0 3 -22 32 -50 64 -27 32 -50 61 -50 65 0 3 -6 12 -12 19 -7
7 -24 27 -38 45 -14 18 -30 38 -35 44 -6 7 -91 116 -190 242 -98 127 -184 235
-190 241 -5 7 -19 24 -30 39 -21 29 -254 327 -450 576 -196 249 -369 394 -600
503 -68 33 -209 83 -254 91 -16 3 -42 10 -56 15 -15 6 -50 13 -78 16 -29 3
-59 8 -67 11 -31 11 -318 9 -395 -2z"/>
<path d="M6301 6080 c-12 -7 -14 -379 -14 -2311 1 -2101 3 -2438 17 -2480 3
-8 7 -30 10 -49 11 -72 49 -198 88 -290 22 -52 42 -103 45 -112 3 -10 9 -18
14 -18 5 0 9 -9 9 -20 0 -11 4 -20 8 -20 4 0 17 -19 29 -42 12 -24 28 -52 37
-63 9 -11 36 -47 60 -80 52 -71 158 -182 236 -246 81 -67 287 -198 320 -204 3
0 23 -9 45 -19 154 -70 323 -110 508 -122 l97 -6 -3 2368 c-1 1303 -6 2380 -9
2394 -4 14 -10 47 -13 73 -3 27 -10 57 -15 67 -5 9 -7 19 -5 22 5 4 -6 43 -22
88 -3 8 -7 21 -9 29 -1 7 -13 39 -25 70 -99 249 -266 477 -467 636 -31 25 -62
49 -68 54 -12 10 -90 60 -119 77 -54 32 -241 120 -255 121 -3 0 -39 11 -80 23
-41 12 -86 24 -100 26 -14 3 -38 7 -55 11 -32 7 -38 8 -135 18 -36 4 -68 9
-72 11 -4 2 -10 0 -13 -6 -5 -7 -11 -8 -19 -1 -7 6 -18 6 -25 1z"/>
<path d="M201 3344 c1 -2167 -3 -2024 60 -2239 43 -144 37 -130 92 -245 42
-90 155 -270 169 -270 4 0 8 -5 8 -11 0 -6 21 -33 48 -61 104 -112 143 -146
287 -256 27 -20 158 -93 220 -122 126 -59 293 -108 425 -124 19 -3 35 -5 35
-6 0 -1 41 -4 90 -6 l90 -5 -2 1663 c-1 915 -2 1668 -2 1674 -1 6 -15 29 -31
50 -17 22 -36 46 -43 54 -7 9 -34 45 -62 80 -27 36 -58 74 -67 84 -10 11 -18
23 -18 27 0 4 -6 14 -12 21 -7 7 -29 34 -48 58 -19 25 -38 50 -43 55 -4 6 -73
96 -153 200 -80 105 -150 197 -157 205 -7 8 -26 33 -42 55 -36 48 -47 62 -60
78 -6 7 -40 50 -75 97 -35 47 -67 87 -70 90 -3 3 -17 21 -30 40 -13 19 -27 37
-30 40 -3 3 -25 32 -50 65 -25 33 -47 62 -50 65 -3 3 -34 43 -70 90 -142 187
-164 215 -172 218 -4 2 -8 8 -8 13 0 5 -9 19 -19 31 -11 13 -49 61 -85 108
-36 47 -69 90 -73 95 -5 6 -18 23 -31 39 l-22 29 1 -1979z"/>
</g>
</svg>
